<?xml version="1.0" encoding="utf-8"?>
<!-- Generator: Adobe Illustrator 22.1.0, SVG Export Plug-In . SVG Version: 6.00 Build 0)  -->
<svg version="1.1" id="Layer_1" xmlns="http://www.w3.org/2000/svg" xmlns:xlink="http://www.w3.org/1999/xlink" x="0px" y="0px"
	 viewBox="0 0 800 941" enable-background="new 0 0 800 941" xml:space="preserve">
<g>
	<defs>
		<rect id="SVGID_1_" width="800" height="941"/>
	</defs>
	<clipPath id="SVGID_2_">
		<use xlink:href="#SVGID_1_"  overflow="visible"/>
	</clipPath>
	<g id="a" clip-path="url(#SVGID_2_)">
		<rect fill="#FFFFFF" width="800" height="941"/>
		<rect x="60" y="413" fill="#141D26" width="60" height="60"/>
		<rect x="130" y="623" fill="#8696A5" width="60" height="60"/>
		<rect x="60" y="203" fill="#0084B4" width="60" height="60"/>
		<rect x="60" y="623" fill="#1B2936" width="60" height="60"/>
		<rect x="130" y="413" fill="#FFFFFF" width="60" height="60"/>
		<rect x="60" y="763" fill="#1A587F" width="60" height="60"/>
		<rect x="200" y="623" fill="#E7ECF0" width="60" height="60"/>
		<rect x="130" y="413" fill="#E7E7E7" width="60" height="60"/>
		<rect x="200" y="413" fill="#EFEFEF" width="60" height="60"/>
		<rect x="270" y="413" fill="#F6F6F6" width="60" height="60"/>
		<g enable-background="new    ">
			<path d="M65.3,80.7V89h-2.8V67.7h7.9c2.3,0,4.2,0.6,5.5,1.8s2,2.8,2,4.7c0,2.1-0.6,3.7-1.9,4.8c-1.3,1.1-3.1,1.7-5.6,1.7H65.3z
				 M65.3,78.4h5.1c1.5,0,2.7-0.4,3.5-1.1s1.2-1.7,1.2-3.1c0-1.3-0.4-2.3-1.2-3.1C73,70.4,71.9,70,70.5,70h-5.2V78.4z"/>
			<path d="M90.6,89c-0.2-0.3-0.3-0.9-0.4-1.7c-1.3,1.3-2.8,2-4.5,2c-1.6,0-2.8-0.4-3.8-1.3c-1-0.9-1.5-2-1.5-3.4
				c0-1.7,0.6-2.9,1.9-3.8c1.3-0.9,3-1.4,5.3-1.4h2.6v-1.2c0-0.9-0.3-1.7-0.8-2.3S87.9,75,86.8,75c-1,0-1.8,0.2-2.4,0.7
				s-1,1.1-1,1.8h-2.7c0-0.8,0.3-1.6,0.8-2.3c0.6-0.7,1.3-1.3,2.3-1.8s2-0.6,3.2-0.6c1.8,0,3.3,0.5,4.3,1.4c1,0.9,1.6,2.2,1.6,3.8
				v7.3c0,1.5,0.2,2.6,0.6,3.5V89H90.6z M86.1,86.9c0.8,0,1.7-0.2,2.4-0.7s1.3-1,1.7-1.7v-3.3h-2.1c-3.3,0-5,1-5,2.9
				c0,0.8,0.3,1.5,0.8,2S85.2,86.9,86.1,86.9z"/>
			<path d="M100.1,89h-2.7V66.5h2.7V89z"/>
			<path d="M111,89.3c-2.1,0-3.9-0.7-5.2-2.1c-1.3-1.4-2-3.3-2-5.7V81c0-1.6,0.3-3,0.9-4.2c0.6-1.2,1.4-2.2,2.5-2.9
				c1.1-0.7,2.2-1,3.5-1c2.1,0,3.7,0.7,4.8,2s1.7,3.3,1.7,5.8v1.1h-10.7c0,1.6,0.5,2.8,1.4,3.8s2,1.4,3.3,1.4c1,0,1.8-0.2,2.4-0.6
				s1.2-0.9,1.7-1.6l1.7,1.3C115.6,88.3,113.6,89.3,111,89.3z M110.7,75.1c-1.1,0-2,0.4-2.8,1.2c-0.7,0.8-1.2,1.9-1.4,3.3h7.9v-0.2
				c-0.1-1.4-0.4-2.4-1.1-3.2C112.7,75.5,111.8,75.1,110.7,75.1z"/>
			<path d="M124,69.3v3.8h3v2.1h-3v9.8c0,0.6,0.1,1.1,0.4,1.4s0.7,0.5,1.3,0.5c0.3,0,0.7-0.1,1.3-0.2V89c-0.7,0.2-1.4,0.3-2.1,0.3
				c-1.2,0-2.1-0.4-2.7-1.1s-0.9-1.8-0.9-3.1v-9.8h-2.9v-2.1h2.9v-3.8H124z"/>
			<path d="M133.8,69.3v3.8h3v2.1h-3v9.8c0,0.6,0.1,1.1,0.4,1.4s0.7,0.5,1.3,0.5c0.3,0,0.7-0.1,1.3-0.2V89c-0.7,0.2-1.4,0.3-2.1,0.3
				c-1.2,0-2.1-0.4-2.7-1.1s-0.9-1.8-0.9-3.1v-9.8h-2.9v-2.1h2.9v-3.8H133.8z"/>
			<path d="M146.5,89.3c-2.1,0-3.9-0.7-5.2-2.1c-1.3-1.4-2-3.3-2-5.7V81c0-1.6,0.3-3,0.9-4.2c0.6-1.2,1.4-2.2,2.5-2.9
				c1.1-0.7,2.2-1,3.5-1c2.1,0,3.7,0.7,4.8,2s1.7,3.3,1.7,5.8v1.1h-10.7c0,1.6,0.5,2.8,1.4,3.8s2,1.4,3.3,1.4c1,0,1.8-0.2,2.4-0.6
				s1.2-0.9,1.7-1.6l1.7,1.3C151.1,88.3,149.1,89.3,146.5,89.3z M146.1,75.1c-1.1,0-2,0.4-2.8,1.2c-0.7,0.8-1.2,1.9-1.4,3.3h7.9
				v-0.2c-0.1-1.4-0.4-2.4-1.1-3.2C148.2,75.5,147.3,75.1,146.1,75.1z"/>
		</g>
		<g enable-background="new    ">
			<path d="M65.2,496.2h-1.8l-0.5,2.8h-1l0.5-2.8h-1.6v-0.9h1.8l0.5-2.4h-1.8v-0.9h1.9l0.6-2.8h1l-0.6,2.8h1.8l0.6-2.8h1l-0.6,2.8
				h1.4v0.9h-1.6l-0.5,2.4h1.5v0.9h-1.7l-0.5,2.8h-1L65.2,496.2z M63.6,495.3h1.8l0.5-2.4h-1.8L63.6,495.3z"/>
			<path d="M73.6,499h-1.3v-8.4l-2.5,0.9v-1.1l3.6-1.4h0.2V499z"/>
			<path d="M82.6,495.7H84v1h-1.4v2.3h-1.3v-2.3h-4.5v-0.7l4.5-6.9h1.3V495.7z M78.3,495.7h3.1v-4.9l-0.2,0.3L78.3,495.7z"/>
			<path d="M89.3,499h-1.3v-8.4l-2.5,0.9v-1.1l3.6-1.4h0.2V499z"/>
			<path d="M93.4,499v-10h2.8c0.9,0,1.6,0.2,2.3,0.6s1.2,0.9,1.5,1.6s0.5,1.5,0.6,2.4v0.6c0,0.9-0.2,1.8-0.5,2.5s-0.9,1.2-1.6,1.6
				S97,499,96.1,499H93.4z M94.7,490.1v7.8h1.4c1,0,1.8-0.3,2.4-0.9c0.6-0.6,0.8-1.5,0.8-2.7v-0.6c0-1.1-0.3-2-0.8-2.6
				c-0.5-0.6-1.3-0.9-2.3-1H94.7z"/>
			<path d="M108.7,499h-6.5v-0.9l3.4-3.8c0.5-0.6,0.9-1,1.1-1.4c0.2-0.4,0.3-0.7,0.3-1.1c0-0.5-0.2-0.9-0.5-1.3s-0.7-0.5-1.3-0.5
				c-0.6,0-1.1,0.2-1.5,0.5c-0.3,0.4-0.5,0.9-0.5,1.5H102c0-0.9,0.3-1.7,0.9-2.2s1.4-0.8,2.4-0.8c0.9,0,1.7,0.2,2.2,0.7
				c0.5,0.5,0.8,1.1,0.8,1.9c0,1-0.6,2.1-1.9,3.5l-2.7,2.9h5V499z"/>
			<path d="M115,489v1.1h-0.2c-1,0-1.8,0.3-2.4,0.9s-0.9,1.4-1,2.4c0.5-0.6,1.2-0.9,2.1-0.9c0.9,0,1.6,0.3,2.1,0.9s0.8,1.4,0.8,2.4
				c0,1-0.3,1.8-0.8,2.5s-1.3,0.9-2.2,0.9c-1,0-1.7-0.4-2.3-1.1c-0.6-0.7-0.9-1.7-0.9-2.8v-0.5c0-1.8,0.4-3.2,1.2-4.2
				c0.8-1,1.9-1.5,3.5-1.5H115z M113.4,493.5c-0.4,0-0.8,0.1-1.2,0.4s-0.6,0.6-0.8,1v0.5c0,0.8,0.2,1.5,0.6,2s0.8,0.8,1.4,0.8
				c0.6,0,1-0.2,1.3-0.6s0.5-1,0.5-1.6c0-0.7-0.2-1.2-0.5-1.7C114.4,493.7,113.9,493.5,113.4,493.5z"/>
		</g>
		<g enable-background="new    ">
			<path d="M65.2,706.2h-1.8l-0.5,2.8h-1l0.5-2.8h-1.6v-0.9h1.8l0.5-2.4h-1.8v-0.9h1.9l0.6-2.8h1l-0.6,2.8h1.8l0.6-2.8h1l-0.6,2.8
				h1.4v0.9h-1.6l-0.5,2.4h1.5v0.9h-1.7l-0.5,2.8h-1L65.2,706.2z M63.6,705.3h1.8l0.5-2.4h-1.8L63.6,705.3z"/>
			<path d="M73.6,709h-1.3v-8.4l-2.5,0.9v-1.1l3.6-1.4h0.2V709z"/>
			<path d="M77.6,709v-10h3.3c1.1,0,1.9,0.2,2.4,0.7s0.8,1.1,0.8,2c0,0.5-0.1,0.9-0.4,1.2c-0.3,0.4-0.6,0.6-1.1,0.8
				c0.5,0.2,1,0.4,1.3,0.9c0.3,0.4,0.5,0.9,0.5,1.5c0,0.9-0.3,1.6-0.9,2.1s-1.4,0.8-2.5,0.8H77.6z M78.9,703.3h2
				c0.6,0,1-0.1,1.4-0.4s0.5-0.7,0.5-1.2c0-0.5-0.2-0.9-0.5-1.2c-0.3-0.2-0.8-0.4-1.5-0.4h-1.9V703.3z M78.9,704.3v3.6h2.2
				c0.6,0,1.1-0.2,1.4-0.5c0.4-0.3,0.5-0.8,0.5-1.3c0-1.2-0.7-1.8-2-1.8H78.9z"/>
			<path d="M92.5,709H86v-0.9l3.4-3.8c0.5-0.6,0.9-1,1.1-1.4c0.2-0.4,0.3-0.7,0.3-1.1c0-0.5-0.2-0.9-0.5-1.3s-0.7-0.5-1.3-0.5
				c-0.6,0-1.1,0.2-1.5,0.5c-0.3,0.4-0.5,0.9-0.5,1.5h-1.3c0-0.9,0.3-1.7,0.9-2.2s1.4-0.8,2.4-0.8c0.9,0,1.7,0.2,2.2,0.7
				c0.5,0.5,0.8,1.1,0.8,1.9c0,1-0.6,2.1-1.9,3.5l-2.7,2.9h5V709z"/>
			<path d="M98.7,704.6c-0.3,0.3-0.6,0.6-0.9,0.8s-0.8,0.3-1.2,0.3c-0.6,0-1.1-0.1-1.5-0.4s-0.8-0.7-1-1.2c-0.2-0.5-0.3-1.1-0.3-1.7
				c0-0.7,0.1-1.3,0.4-1.8s0.6-0.9,1.1-1.2s1-0.4,1.6-0.4c1,0,1.8,0.4,2.3,1.1c0.6,0.7,0.9,1.7,0.9,3v0.4c0,1.9-0.4,3.4-1.1,4.2
				c-0.8,0.9-1.9,1.3-3.5,1.4h-0.2v-1.1h0.3c1,0,1.8-0.3,2.4-0.8S98.7,705.8,98.7,704.6z M96.8,704.6c0.4,0,0.8-0.1,1.2-0.4
				s0.6-0.6,0.8-1v-0.5c0-0.8-0.2-1.5-0.5-2s-0.8-0.8-1.4-0.8c-0.6,0-1,0.2-1.3,0.6c-0.3,0.4-0.5,1-0.5,1.7c0,0.7,0.2,1.2,0.5,1.7
				C95.8,704.4,96.2,704.6,96.8,704.6z"/>
			<path d="M103.6,703.4h1c0.6,0,1.1-0.2,1.4-0.5s0.5-0.7,0.5-1.2c0-1.2-0.6-1.8-1.7-1.8c-0.5,0-1,0.2-1.3,0.5
				c-0.3,0.3-0.5,0.7-0.5,1.2h-1.3c0-0.8,0.3-1.4,0.9-2c0.6-0.5,1.3-0.8,2.2-0.8c0.9,0,1.7,0.2,2.2,0.7s0.8,1.2,0.8,2.1
				c0,0.4-0.1,0.9-0.4,1.3s-0.7,0.7-1.1,0.9c0.5,0.2,1,0.5,1.3,0.9s0.4,0.9,0.4,1.5c0,0.9-0.3,1.6-0.9,2.1s-1.3,0.8-2.3,0.8
				s-1.7-0.3-2.3-0.8s-0.9-1.2-0.9-2h1.3c0,0.5,0.2,0.9,0.5,1.3s0.8,0.5,1.4,0.5c0.6,0,1.1-0.2,1.4-0.5s0.5-0.8,0.5-1.4
				c0-0.6-0.2-1-0.5-1.3s-0.9-0.5-1.5-0.5h-1V703.4z"/>
			<path d="M114.6,699v1.1h-0.2c-1,0-1.8,0.3-2.4,0.9s-0.9,1.4-1,2.4c0.5-0.6,1.2-0.9,2.1-0.9c0.9,0,1.6,0.3,2.1,0.9
				s0.8,1.4,0.8,2.4c0,1-0.3,1.8-0.8,2.5s-1.3,0.9-2.2,0.9c-1,0-1.7-0.4-2.3-1.1c-0.6-0.7-0.9-1.7-0.9-2.8v-0.5
				c0-1.8,0.4-3.2,1.2-4.2c0.8-1,1.9-1.5,3.5-1.5H114.6z M112.9,703.5c-0.4,0-0.8,0.1-1.2,0.4s-0.6,0.6-0.8,1v0.5
				c0,0.8,0.2,1.5,0.6,2s0.8,0.8,1.4,0.8c0.6,0,1-0.2,1.3-0.6s0.5-1,0.5-1.6c0-0.7-0.2-1.2-0.5-1.7
				C113.9,703.7,113.5,703.5,112.9,703.5z"/>
		</g>
		<g enable-background="new    ">
			<path d="M135.2,706.2h-1.8l-0.5,2.8h-1l0.5-2.8h-1.6v-0.9h1.8l0.5-2.4h-1.8v-0.9h1.9l0.6-2.8h1l-0.6,2.8h1.8l0.6-2.8h1l-0.6,2.8
				h1.4v0.9h-1.6l-0.5,2.4h1.5v0.9h-1.7l-0.5,2.8h-1L135.2,706.2z M133.6,705.3h1.8l0.5-2.4h-1.8L133.6,705.3z"/>
			<path d="M145.5,701.6c0,0.5-0.1,0.9-0.4,1.3s-0.6,0.7-1.1,0.9c0.5,0.2,0.9,0.5,1.2,1s0.5,0.9,0.5,1.5c0,0.9-0.3,1.5-0.9,2.1
				s-1.3,0.8-2.3,0.8c-1,0-1.7-0.3-2.3-0.8c-0.6-0.5-0.9-1.2-0.9-2.1c0-0.5,0.1-1,0.4-1.5s0.7-0.8,1.2-1c-0.4-0.2-0.8-0.5-1-0.9
				s-0.4-0.8-0.4-1.3c0-0.8,0.3-1.5,0.8-2s1.2-0.7,2.1-0.7c0.9,0,1.6,0.2,2.1,0.7S145.5,700.8,145.5,701.6z M144.5,706.3
				c0-0.6-0.2-1-0.5-1.4s-0.8-0.5-1.4-0.5s-1,0.2-1.4,0.5s-0.5,0.8-0.5,1.4s0.2,1,0.5,1.3s0.8,0.5,1.4,0.5c0.6,0,1.1-0.2,1.4-0.5
				C144.3,707.3,144.5,706.8,144.5,706.3z M142.6,699.9c-0.5,0-0.9,0.2-1.2,0.5c-0.3,0.3-0.5,0.7-0.5,1.3c0,0.5,0.2,0.9,0.5,1.2
				c0.3,0.3,0.7,0.5,1.2,0.5s0.9-0.2,1.2-0.5c0.3-0.3,0.5-0.7,0.5-1.2s-0.2-0.9-0.5-1.2S143,699.9,142.6,699.9z"/>
			<path d="M152.3,699v1.1H152c-1,0-1.8,0.3-2.4,0.9s-0.9,1.4-1,2.4c0.5-0.6,1.2-0.9,2.1-0.9c0.9,0,1.6,0.3,2.1,0.9s0.8,1.4,0.8,2.4
				c0,1-0.3,1.8-0.8,2.5s-1.3,0.9-2.2,0.9c-1,0-1.7-0.4-2.3-1.1c-0.6-0.7-0.9-1.7-0.9-2.8v-0.5c0-1.8,0.4-3.2,1.2-4.2
				c0.8-1,1.9-1.5,3.5-1.5H152.3z M150.6,703.5c-0.4,0-0.8,0.1-1.2,0.4s-0.6,0.6-0.8,1v0.5c0,0.8,0.2,1.5,0.6,2s0.8,0.8,1.4,0.8
				c0.6,0,1-0.2,1.3-0.6s0.5-1,0.5-1.6c0-0.7-0.2-1.2-0.5-1.7C151.6,703.7,151.2,703.5,150.6,703.5z"/>
			<path d="M160,704.6c-0.3,0.3-0.6,0.6-0.9,0.8s-0.8,0.3-1.2,0.3c-0.6,0-1.1-0.1-1.5-0.4s-0.8-0.7-1-1.2c-0.2-0.5-0.3-1.1-0.3-1.7
				c0-0.7,0.1-1.3,0.4-1.8s0.6-0.9,1.1-1.2s1-0.4,1.6-0.4c1,0,1.8,0.4,2.3,1.1c0.6,0.7,0.9,1.7,0.9,3v0.4c0,1.9-0.4,3.4-1.1,4.2
				c-0.8,0.9-1.9,1.3-3.5,1.4h-0.2v-1.1h0.3c1,0,1.8-0.3,2.4-0.8S160,705.8,160,704.6z M158.1,704.6c0.4,0,0.8-0.1,1.2-0.4
				s0.6-0.6,0.8-1v-0.5c0-0.8-0.2-1.5-0.5-2s-0.8-0.8-1.4-0.8c-0.6,0-1,0.2-1.3,0.6c-0.3,0.4-0.5,1-0.5,1.7c0,0.7,0.2,1.2,0.5,1.7
				C157.1,704.4,157.5,704.6,158.1,704.6z"/>
			<path d="M168,699v1.1h-0.2c-1,0-1.8,0.3-2.4,0.9s-0.9,1.4-1,2.4c0.5-0.6,1.2-0.9,2.1-0.9c0.9,0,1.6,0.3,2.1,0.9s0.8,1.4,0.8,2.4
				c0,1-0.3,1.8-0.8,2.5s-1.3,0.9-2.2,0.9c-1,0-1.7-0.4-2.3-1.1c-0.6-0.7-0.9-1.7-0.9-2.8v-0.5c0-1.8,0.4-3.2,1.2-4.2
				c0.8-1,1.9-1.5,3.5-1.5H168z M166.3,703.5c-0.4,0-0.8,0.1-1.2,0.4s-0.6,0.6-0.8,1v0.5c0,0.8,0.2,1.5,0.6,2s0.8,0.8,1.4,0.8
				c0.6,0,1-0.2,1.3-0.6s0.5-1,0.5-1.6c0-0.7-0.2-1.2-0.5-1.7C167.3,703.7,166.9,703.5,166.3,703.5z"/>
			<path d="M176.7,706.4h-4.2l-0.9,2.6h-1.4l3.8-10h1.1l3.8,10h-1.3L176.7,706.4z M172.9,705.3h3.4l-1.7-4.7L172.9,705.3z"/>
			<path d="M180.6,704l0.5-5h5.1v1.2h-4l-0.3,2.7c0.5-0.3,1-0.4,1.7-0.4c0.9,0,1.6,0.3,2.2,0.9c0.5,0.6,0.8,1.4,0.8,2.4
				c0,1-0.3,1.8-0.8,2.4c-0.6,0.6-1.3,0.9-2.3,0.9c-0.9,0-1.6-0.2-2.2-0.7s-0.9-1.2-1-2h1.2c0.1,0.6,0.3,1,0.6,1.3
				c0.3,0.3,0.8,0.4,1.3,0.4c0.6,0,1-0.2,1.4-0.6s0.5-1,0.5-1.7c0-0.7-0.2-1.2-0.5-1.6c-0.4-0.4-0.8-0.6-1.4-0.6
				c-0.6,0-1,0.1-1.3,0.4l-0.3,0.3L180.6,704z"/>
		</g>
		<g enable-background="new    ">
			<path d="M205.2,706.2h-1.8l-0.5,2.8h-1l0.5-2.8h-1.6v-0.9h1.8l0.5-2.4h-1.8v-0.9h1.9l0.6-2.8h1l-0.6,2.8h1.8l0.6-2.8h1l-0.6,2.8
				h1.4v0.9h-1.6l-0.5,2.4h1.5v0.9h-1.7l-0.5,2.8h-1L205.2,706.2z M203.6,705.3h1.8l0.5-2.4h-1.8L203.6,705.3z"/>
			<path d="M215.4,704.4h-4.3v3.5h5v1.1h-6.3v-10h6.3v1.1h-4.9v3.2h4.3V704.4z"/>
			<path d="M223.8,699.8l-4.1,9.2h-1.3l4.1-8.9h-5.4v-1h6.7V699.8z"/>
			<path d="M231.2,704.4h-4.3v3.5h5v1.1h-6.3v-10h6.3v1.1h-4.9v3.2h4.3V704.4z"/>
			<path d="M240.9,705.8c-0.1,1.1-0.5,1.9-1.2,2.4c-0.7,0.6-1.5,0.9-2.6,0.9c-1.2,0-2.1-0.4-2.8-1.3s-1.1-2-1.1-3.4v-1
				c0-0.9,0.2-1.7,0.5-2.4s0.8-1.2,1.4-1.6c0.6-0.4,1.3-0.6,2.1-0.6c1.1,0,1.9,0.3,2.5,0.9c0.6,0.6,1,1.4,1.1,2.5h-1.3
				c-0.1-0.8-0.4-1.4-0.7-1.7s-0.9-0.5-1.6-0.5c-0.8,0-1.5,0.3-2,0.9s-0.7,1.5-0.7,2.6v1c0,1.1,0.2,1.9,0.7,2.6s1.1,1,1.9,1
				c0.7,0,1.3-0.2,1.7-0.5c0.4-0.3,0.6-0.9,0.8-1.7H240.9z"/>
			<path d="M248.2,704.6H244v4.4h-1.3v-10h6.2v1.1H244v3.4h4.2V704.6z"/>
			<path d="M256.3,704.8c0,1.5-0.3,2.6-0.8,3.3s-1.3,1.1-2.4,1.1c-1.1,0-1.8-0.4-2.4-1.1c-0.5-0.7-0.8-1.8-0.8-3.2v-1.7
				c0-1.5,0.3-2.5,0.8-3.3s1.3-1.1,2.4-1.1c1.1,0,1.9,0.3,2.4,1c0.5,0.7,0.8,1.7,0.8,3.2V704.8z M255,703c0-1.1-0.2-1.9-0.5-2.3
				c-0.3-0.5-0.8-0.7-1.4-0.7c-0.6,0-1.1,0.2-1.4,0.7s-0.4,1.2-0.5,2.2v2c0,1.1,0.2,1.9,0.5,2.4c0.3,0.5,0.8,0.8,1.4,0.8
				c0.6,0,1.1-0.2,1.4-0.7s0.5-1.2,0.5-2.3V703z"/>
		</g>
		<g enable-background="new    ">
			<path d="M65.2,846.2h-1.8l-0.5,2.8h-1l0.5-2.8h-1.6v-0.9h1.8l0.5-2.4h-1.8v-0.9h1.9l0.6-2.8h1l-0.6,2.8h1.8l0.6-2.8h1l-0.6,2.8
				h1.4v0.9h-1.6l-0.5,2.4h1.5v0.9h-1.7l-0.5,2.8h-1L65.2,846.2z M63.6,845.3h1.8l0.5-2.4h-1.8L63.6,845.3z"/>
			<path d="M73.6,849h-1.3v-8.4l-2.5,0.9v-1.1l3.6-1.4h0.2V849z"/>
			<path d="M83.1,846.4H79L78,849h-1.4l3.8-10h1.1l3.8,10h-1.3L83.1,846.4z M79.4,845.3h3.4l-1.7-4.7L79.4,845.3z"/>
			<path d="M87,844l0.5-5h5.1v1.2h-4l-0.3,2.7c0.5-0.3,1-0.4,1.7-0.4c0.9,0,1.6,0.3,2.2,0.9c0.5,0.6,0.8,1.4,0.8,2.4
				c0,1-0.3,1.8-0.8,2.4c-0.6,0.6-1.3,0.9-2.3,0.9c-0.9,0-1.6-0.2-2.2-0.7s-0.9-1.2-1-2h1.2c0.1,0.6,0.3,1,0.6,1.3
				c0.3,0.3,0.8,0.4,1.3,0.4c0.6,0,1-0.2,1.4-0.6s0.5-1,0.5-1.7c0-0.7-0.2-1.2-0.5-1.6c-0.4-0.4-0.8-0.6-1.4-0.6
				c-0.6,0-1,0.1-1.3,0.4l-0.3,0.3L87,844z"/>
			<path d="M100.3,841.6c0,0.5-0.1,0.9-0.4,1.3s-0.6,0.7-1.1,0.9c0.5,0.2,0.9,0.5,1.2,1s0.5,0.9,0.5,1.5c0,0.9-0.3,1.5-0.9,2.1
				s-1.3,0.8-2.3,0.8c-1,0-1.7-0.3-2.3-0.8c-0.6-0.5-0.9-1.2-0.9-2.1c0-0.5,0.1-1,0.4-1.5s0.7-0.8,1.2-1c-0.4-0.2-0.8-0.5-1-0.9
				s-0.4-0.8-0.4-1.3c0-0.8,0.3-1.5,0.8-2s1.2-0.7,2.1-0.7c0.9,0,1.6,0.2,2.1,0.7S100.3,840.8,100.3,841.6z M99.3,846.3
				c0-0.6-0.2-1-0.5-1.4s-0.8-0.5-1.4-0.5s-1,0.2-1.4,0.5s-0.5,0.8-0.5,1.4s0.2,1,0.5,1.3s0.8,0.5,1.4,0.5c0.6,0,1.1-0.2,1.4-0.5
				C99.1,847.3,99.3,846.8,99.3,846.3z M97.4,839.9c-0.5,0-0.9,0.2-1.2,0.5c-0.3,0.3-0.5,0.7-0.5,1.3c0,0.5,0.2,0.9,0.5,1.2
				c0.3,0.3,0.7,0.5,1.2,0.5s0.9-0.2,1.2-0.5c0.3-0.3,0.5-0.7,0.5-1.2s-0.2-0.9-0.5-1.2S97.9,839.9,97.4,839.9z"/>
			<path d="M108.6,839.8l-4.1,9.2h-1.3l4.1-8.9h-5.4v-1h6.7V839.8z"/>
			<path d="M115.8,844.6h-4.2v4.4h-1.3v-10h6.2v1.1h-4.9v3.4h4.2V844.6z"/>
		</g>
		<g enable-background="new    ">
			<path d="M65.2,286.2h-1.8l-0.5,2.8h-1l0.5-2.8h-1.6v-0.9h1.8l0.5-2.4h-1.8v-0.9h1.9l0.6-2.8h1l-0.6,2.8h1.8l0.6-2.8h1l-0.6,2.8
				h1.4v0.9h-1.6l-0.5,2.4h1.5v0.9h-1.7l-0.5,2.8h-1L65.2,286.2z M63.6,285.3h1.8l0.5-2.4h-1.8L63.6,285.3z"/>
			<path d="M75.7,284.8c0,1.5-0.3,2.6-0.8,3.3s-1.3,1.1-2.4,1.1c-1.1,0-1.8-0.4-2.4-1.1c-0.5-0.7-0.8-1.8-0.8-3.2v-1.7
				c0-1.5,0.3-2.5,0.8-3.3s1.3-1.1,2.4-1.1c1.1,0,1.9,0.3,2.4,1c0.5,0.7,0.8,1.7,0.8,3.2V284.8z M74.4,283c0-1.1-0.2-1.9-0.5-2.3
				c-0.3-0.5-0.8-0.7-1.4-0.7c-0.6,0-1.1,0.2-1.4,0.7s-0.4,1.2-0.5,2.2v2c0,1.1,0.2,1.9,0.5,2.4c0.3,0.5,0.8,0.8,1.4,0.8
				c0.6,0,1.1-0.2,1.4-0.7s0.5-1.2,0.5-2.3V283z"/>
			<path d="M83.5,284.8c0,1.5-0.3,2.6-0.8,3.3s-1.3,1.1-2.4,1.1c-1.1,0-1.8-0.4-2.4-1.1c-0.5-0.7-0.8-1.8-0.8-3.2v-1.7
				c0-1.5,0.3-2.5,0.8-3.3s1.3-1.1,2.4-1.1c1.1,0,1.9,0.3,2.4,1c0.5,0.7,0.8,1.7,0.8,3.2V284.8z M82.3,283c0-1.1-0.2-1.9-0.5-2.3
				c-0.3-0.5-0.8-0.7-1.4-0.7c-0.6,0-1.1,0.2-1.4,0.7s-0.4,1.2-0.5,2.2v2c0,1.1,0.2,1.9,0.5,2.4c0.3,0.5,0.8,0.8,1.4,0.8
				c0.6,0,1.1-0.2,1.4-0.7s0.5-1.2,0.5-2.3V283z"/>
			<path d="M91.2,281.6c0,0.5-0.1,0.9-0.4,1.3s-0.6,0.7-1.1,0.9c0.5,0.2,0.9,0.5,1.2,1s0.5,0.9,0.5,1.5c0,0.9-0.3,1.5-0.9,2.1
				s-1.3,0.8-2.3,0.8c-1,0-1.7-0.3-2.3-0.8c-0.6-0.5-0.9-1.2-0.9-2.1c0-0.5,0.1-1,0.4-1.5s0.7-0.8,1.2-1c-0.4-0.2-0.8-0.5-1-0.9
				s-0.4-0.8-0.4-1.3c0-0.8,0.3-1.5,0.8-2s1.2-0.7,2.1-0.7c0.9,0,1.6,0.2,2.1,0.7S91.2,280.8,91.2,281.6z M90.2,286.3
				c0-0.6-0.2-1-0.5-1.4s-0.8-0.5-1.4-0.5s-1,0.2-1.4,0.5s-0.5,0.8-0.5,1.4s0.2,1,0.5,1.3s0.8,0.5,1.4,0.5c0.6,0,1.1-0.2,1.4-0.5
				C90,287.3,90.2,286.8,90.2,286.3z M88.3,279.9c-0.5,0-0.9,0.2-1.2,0.5c-0.3,0.3-0.5,0.7-0.5,1.3c0,0.5,0.2,0.9,0.5,1.2
				c0.3,0.3,0.7,0.5,1.2,0.5s0.9-0.2,1.2-0.5c0.3-0.3,0.5-0.7,0.5-1.2s-0.2-0.9-0.5-1.2S88.8,279.9,88.3,279.9z"/>
			<path d="M98.4,285.7h1.4v1h-1.4v2.3h-1.3v-2.3h-4.5v-0.7L97,279h1.3V285.7z M94,285.7h3.1v-4.9l-0.2,0.3L94,285.7z"/>
			<path d="M101.2,289v-10h3.3c1.1,0,1.9,0.2,2.4,0.7s0.8,1.1,0.8,2c0,0.5-0.1,0.9-0.4,1.2c-0.3,0.4-0.6,0.6-1.1,0.8
				c0.5,0.2,1,0.4,1.3,0.9c0.3,0.4,0.5,0.9,0.5,1.5c0,0.9-0.3,1.6-0.9,2.1s-1.4,0.8-2.5,0.8H101.2z M102.5,283.3h2
				c0.6,0,1-0.1,1.4-0.4s0.5-0.7,0.5-1.2c0-0.5-0.2-0.9-0.5-1.2c-0.3-0.2-0.8-0.4-1.5-0.4h-1.9V283.3z M102.5,284.3v3.6h2.2
				c0.6,0,1.1-0.2,1.4-0.5c0.4-0.3,0.5-0.8,0.5-1.3c0-1.2-0.7-1.8-2-1.8H102.5z"/>
			<path d="M114.9,285.7h1.4v1h-1.4v2.3h-1.3v-2.3h-4.5v-0.7l4.5-6.9h1.3V285.7z M110.6,285.7h3.1v-4.9l-0.2,0.3L110.6,285.7z"/>
		</g>
		<g enable-background="new    ">
			<path d="M135.2,496.2h-1.8l-0.5,2.8h-1l0.5-2.8h-1.6v-0.9h1.8l0.5-2.4h-1.8v-0.9h1.9l0.6-2.8h1l-0.6,2.8h1.8l0.6-2.8h1l-0.6,2.8
				h1.4v0.9h-1.6l-0.5,2.4h1.5v0.9h-1.7l-0.5,2.8h-1L135.2,496.2z M133.6,495.3h1.8l0.5-2.4h-1.8L133.6,495.3z"/>
			<path d="M145.4,494.4h-4.3v3.5h5v1.1h-6.3v-10h6.3v1.1h-4.9v3.2h4.3V494.4z"/>
			<path d="M153.8,489.8l-4.1,9.2h-1.3l4.1-8.9h-5.4v-1h6.7V489.8z"/>
			<path d="M161.2,494.4h-4.3v3.5h5v1.1h-6.3v-10h6.3v1.1h-4.9v3.2h4.3V494.4z"/>
			<path d="M169.6,489.8l-4.1,9.2h-1.3l4.1-8.9h-5.4v-1h6.7V489.8z"/>
			<path d="M177,494.4h-4.3v3.5h5v1.1h-6.3v-10h6.3v1.1h-4.9v3.2h4.3V494.4z"/>
			<path d="M185.5,489.8l-4.1,9.2H180l4.1-8.9h-5.4v-1h6.7V489.8z"/>
		</g>
		<g enable-background="new    ">
			<path d="M205.2,496.2h-1.8l-0.5,2.8h-1l0.5-2.8h-1.6v-0.9h1.8l0.5-2.4h-1.8v-0.9h1.9l0.6-2.8h1l-0.6,2.8h1.8l0.6-2.8h1l-0.6,2.8
				h1.4v0.9h-1.6l-0.5,2.4h1.5v0.9h-1.7l-0.5,2.8h-1L205.2,496.2z M203.6,495.3h1.8l0.5-2.4h-1.8L203.6,495.3z"/>
			<path d="M215.4,494.4h-4.3v3.5h5v1.1h-6.3v-10h6.3v1.1h-4.9v3.2h4.3V494.4z"/>
			<path d="M223.2,494.6H219v4.4h-1.3v-10h6.2v1.1H219v3.4h4.2V494.6z"/>
			<path d="M231.1,494.4h-4.3v3.5h5v1.1h-6.3v-10h6.3v1.1h-4.9v3.2h4.3V494.4z"/>
			<path d="M238.9,494.6h-4.2v4.4h-1.3v-10h6.2v1.1h-4.9v3.4h4.2V494.6z"/>
			<path d="M246.8,494.4h-4.3v3.5h5v1.1h-6.3v-10h6.3v1.1h-4.9v3.2h4.3V494.4z"/>
			<path d="M254.6,494.6h-4.2v4.4h-1.3v-10h6.2v1.1h-4.9v3.4h4.2V494.6z"/>
		</g>
		<g enable-background="new    ">
			<path d="M275.2,496.2h-1.8l-0.5,2.8h-1l0.5-2.8h-1.6v-0.9h1.8l0.5-2.4h-1.8v-0.9h1.9l0.6-2.8h1l-0.6,2.8h1.8l0.6-2.8h1l-0.6,2.8
				h1.4v0.9h-1.6l-0.5,2.4h1.5v0.9h-1.7l-0.5,2.8h-1L275.2,496.2z M273.6,495.3h1.8l0.5-2.4h-1.8L273.6,495.3z"/>
			<path d="M285.3,494.6h-4.2v4.4h-1.3v-10h6.2v1.1h-4.9v3.4h4.2V494.6z"/>
			<path d="M292.1,489v1.1h-0.2c-1,0-1.8,0.3-2.4,0.9s-0.9,1.4-1,2.4c0.5-0.6,1.2-0.9,2.1-0.9c0.9,0,1.6,0.3,2.1,0.9
				s0.8,1.4,0.8,2.4c0,1-0.3,1.8-0.8,2.5s-1.3,0.9-2.2,0.9c-1,0-1.7-0.4-2.3-1.1c-0.6-0.7-0.9-1.7-0.9-2.8v-0.5
				c0-1.8,0.4-3.2,1.2-4.2c0.8-1,1.9-1.5,3.5-1.5H292.1z M290.5,493.5c-0.4,0-0.8,0.1-1.2,0.4s-0.6,0.6-0.8,1v0.5
				c0,0.8,0.2,1.5,0.6,2s0.8,0.8,1.4,0.8c0.6,0,1-0.2,1.3-0.6s0.5-1,0.5-1.6c0-0.7-0.2-1.2-0.5-1.7
				C291.5,493.7,291,493.5,290.5,493.5z"/>
			<path d="M300.9,494.6h-4.2v4.4h-1.3v-10h6.2v1.1h-4.9v3.4h4.2V494.6z"/>
			<path d="M307.7,489v1.1h-0.2c-1,0-1.8,0.3-2.4,0.9s-0.9,1.4-1,2.4c0.5-0.6,1.2-0.9,2.1-0.9c0.9,0,1.6,0.3,2.1,0.9
				s0.8,1.4,0.8,2.4c0,1-0.3,1.8-0.8,2.5s-1.3,0.9-2.2,0.9c-1,0-1.7-0.4-2.3-1.1c-0.6-0.7-0.9-1.7-0.9-2.8v-0.5
				c0-1.8,0.4-3.2,1.2-4.2c0.8-1,1.9-1.5,3.5-1.5H307.7z M306.1,493.5c-0.4,0-0.8,0.1-1.2,0.4s-0.6,0.6-0.8,1v0.5
				c0,0.8,0.2,1.5,0.6,2s0.8,0.8,1.4,0.8c0.6,0,1-0.2,1.3-0.6s0.5-1,0.5-1.6c0-0.7-0.2-1.2-0.5-1.7
				C307.1,493.7,306.6,493.5,306.1,493.5z"/>
			<path d="M316.5,494.6h-4.2v4.4H311v-10h6.2v1.1h-4.9v3.4h4.2V494.6z"/>
			<path d="M323.3,489v1.1h-0.2c-1,0-1.8,0.3-2.4,0.9s-0.9,1.4-1,2.4c0.5-0.6,1.2-0.9,2.1-0.9c0.9,0,1.6,0.3,2.1,0.9
				s0.8,1.4,0.8,2.4c0,1-0.3,1.8-0.8,2.5s-1.3,0.9-2.2,0.9c-1,0-1.7-0.4-2.3-1.1c-0.6-0.7-0.9-1.7-0.9-2.8v-0.5
				c0-1.8,0.4-3.2,1.2-4.2c0.8-1,1.9-1.5,3.5-1.5H323.3z M321.7,493.5c-0.4,0-0.8,0.1-1.2,0.4s-0.6,0.6-0.8,1v0.5
				c0,0.8,0.2,1.5,0.6,2s0.8,0.8,1.4,0.8c0.6,0,1-0.2,1.3-0.6s0.5-1,0.5-1.6c0-0.7-0.2-1.2-0.5-1.7
				C322.7,493.7,322.2,493.5,321.7,493.5z"/>
		</g>
		<rect x="130" y="203" fill="#FFDB25" width="60" height="60"/>
		<g enable-background="new    ">
			<path d="M135.2,286.2h-1.8l-0.5,2.8h-1l0.5-2.8h-1.6v-0.9h1.8l0.5-2.4h-1.8v-0.9h1.9l0.6-2.8h1l-0.6,2.8h1.8l0.6-2.8h1l-0.6,2.8
				h1.4v0.9h-1.6l-0.5,2.4h1.5v0.9h-1.7l-0.5,2.8h-1L135.2,286.2z M133.6,285.3h1.8l0.5-2.4h-1.8L133.6,285.3z"/>
			<path d="M145.3,284.6h-4.2v4.4h-1.3v-10h6.2v1.1h-4.9v3.4h4.2V284.6z"/>
			<path d="M153,284.6h-4.2v4.4h-1.3v-10h6.2v1.1h-4.9v3.4h4.2V284.6z"/>
			<path d="M155.3,289v-10h2.8c0.9,0,1.6,0.2,2.3,0.6s1.2,0.9,1.5,1.6s0.5,1.5,0.6,2.4v0.6c0,0.9-0.2,1.8-0.5,2.5s-0.9,1.2-1.6,1.6
				s-1.5,0.6-2.3,0.6H155.3z M156.6,280.1v7.8h1.4c1,0,1.8-0.3,2.4-0.9c0.6-0.6,0.8-1.5,0.8-2.7v-0.6c0-1.1-0.3-2-0.8-2.6
				c-0.5-0.6-1.3-0.9-2.3-1H156.6z"/>
			<path d="M164.4,289v-10h3.3c1.1,0,1.9,0.2,2.4,0.7s0.8,1.1,0.8,2c0,0.5-0.1,0.9-0.4,1.2c-0.3,0.4-0.6,0.6-1.1,0.8
				c0.5,0.2,1,0.4,1.3,0.9c0.3,0.4,0.5,0.9,0.5,1.5c0,0.9-0.3,1.6-0.9,2.1s-1.4,0.8-2.5,0.8H164.4z M165.7,283.3h2
				c0.6,0,1-0.1,1.4-0.4s0.5-0.7,0.5-1.2c0-0.5-0.2-0.9-0.5-1.2c-0.3-0.2-0.8-0.4-1.5-0.4h-1.9V283.3z M165.7,284.3v3.6h2.2
				c0.6,0,1.1-0.2,1.4-0.5c0.4-0.3,0.5-0.8,0.5-1.3c0-1.2-0.7-1.8-2-1.8H165.7z"/>
			<path d="M179.3,289h-6.5v-0.9l3.4-3.8c0.5-0.6,0.9-1,1.1-1.4c0.2-0.4,0.3-0.7,0.3-1.1c0-0.5-0.2-0.9-0.5-1.3s-0.7-0.5-1.3-0.5
				c-0.6,0-1.1,0.2-1.5,0.5c-0.3,0.4-0.5,0.9-0.5,1.5h-1.3c0-0.9,0.3-1.7,0.9-2.2s1.4-0.8,2.4-0.8c0.9,0,1.7,0.2,2.2,0.7
				c0.5,0.5,0.8,1.1,0.8,1.9c0,1-0.6,2.1-1.9,3.5l-2.7,2.9h5V289z"/>
			<path d="M181.3,284l0.5-5h5.1v1.2h-4l-0.3,2.7c0.5-0.3,1-0.4,1.7-0.4c0.9,0,1.6,0.3,2.2,0.9c0.5,0.6,0.8,1.4,0.8,2.4
				c0,1-0.3,1.8-0.8,2.4c-0.6,0.6-1.3,0.9-2.3,0.9c-0.9,0-1.6-0.2-2.2-0.7s-0.9-1.2-1-2h1.2c0.1,0.6,0.3,1,0.6,1.3
				c0.3,0.3,0.8,0.4,1.3,0.4c0.6,0,1-0.2,1.4-0.6s0.5-1,0.5-1.7c0-0.7-0.2-1.2-0.5-1.6c-0.4-0.4-0.8-0.6-1.4-0.6
				c-0.6,0-1,0.1-1.3,0.4l-0.3,0.3L181.3,284z"/>
		</g>
		<rect x="200" y="203" fill="#DF4534" width="60" height="60"/>
		<rect x="270" y="203" fill="#3FA13F" width="60" height="60"/>
		<g enable-background="new    ">
			<path d="M205.2,286.2h-1.8l-0.5,2.8h-1l0.5-2.8h-1.6v-0.9h1.8l0.5-2.4h-1.8v-0.9h1.9l0.6-2.8h1l-0.6,2.8h1.8l0.6-2.8h1l-0.6,2.8
				h1.4v0.9h-1.6l-0.5,2.4h1.5v0.9h-1.7l-0.5,2.8h-1L205.2,286.2z M203.6,285.3h1.8l0.5-2.4h-1.8L203.6,285.3z"/>
			<path d="M209.8,289v-10h2.8c0.9,0,1.6,0.2,2.3,0.6s1.2,0.9,1.5,1.6s0.5,1.5,0.6,2.4v0.6c0,0.9-0.2,1.8-0.5,2.5s-0.9,1.2-1.6,1.6
				s-1.5,0.6-2.3,0.6H209.8z M211.1,280.1v7.8h1.4c1,0,1.8-0.3,2.4-0.9c0.6-0.6,0.8-1.5,0.8-2.7v-0.6c0-1.1-0.3-2-0.8-2.6
				c-0.5-0.6-1.3-0.9-2.3-1H211.1z"/>
			<path d="M224.4,284.6h-4.2v4.4H219v-10h6.2v1.1h-4.9v3.4h4.2V284.6z"/>
			<path d="M231.7,285.7h1.4v1h-1.4v2.3h-1.3v-2.3h-4.5v-0.7l4.5-6.9h1.3V285.7z M227.3,285.7h3.1v-4.9l-0.2,0.3L227.3,285.7z"/>
			<path d="M234.8,284l0.5-5h5.1v1.2h-4l-0.3,2.7c0.5-0.3,1-0.4,1.7-0.4c0.9,0,1.6,0.3,2.2,0.9c0.5,0.6,0.8,1.4,0.8,2.4
				c0,1-0.3,1.8-0.8,2.4c-0.6,0.6-1.3,0.9-2.3,0.9c-0.9,0-1.6-0.2-2.2-0.7s-0.9-1.2-1-2h1.2c0.1,0.6,0.3,1,0.6,1.3
				c0.3,0.3,0.8,0.4,1.3,0.4c0.6,0,1-0.2,1.4-0.6s0.5-1,0.5-1.7c0-0.7-0.2-1.2-0.5-1.6c-0.4-0.4-0.8-0.6-1.4-0.6
				c-0.6,0-1,0.1-1.3,0.4l-0.3,0.3L234.8,284z"/>
			<path d="M243.9,283.4h1c0.6,0,1.1-0.2,1.4-0.5s0.5-0.7,0.5-1.2c0-1.2-0.6-1.8-1.7-1.8c-0.5,0-1,0.2-1.3,0.5
				c-0.3,0.3-0.5,0.7-0.5,1.2H242c0-0.8,0.3-1.4,0.9-2c0.6-0.5,1.3-0.8,2.2-0.8c0.9,0,1.7,0.2,2.2,0.7s0.8,1.2,0.8,2.1
				c0,0.4-0.1,0.9-0.4,1.3s-0.7,0.7-1.1,0.9c0.5,0.2,1,0.5,1.3,0.9s0.4,0.9,0.4,1.5c0,0.9-0.3,1.6-0.9,2.1s-1.3,0.8-2.3,0.8
				s-1.7-0.3-2.3-0.8s-0.9-1.2-0.9-2h1.3c0,0.5,0.2,0.9,0.5,1.3s0.8,0.5,1.4,0.5c0.6,0,1.1-0.2,1.4-0.5s0.5-0.8,0.5-1.4
				c0-0.6-0.2-1-0.5-1.3s-0.9-0.5-1.5-0.5h-1V283.4z"/>
			<path d="M255.3,285.7h1.4v1h-1.4v2.3H254v-2.3h-4.5v-0.7l4.5-6.9h1.3V285.7z M250.9,285.7h3.1v-4.9l-0.2,0.3L250.9,285.7z"/>
		</g>
		<g enable-background="new    ">
			<path d="M275.2,286.2h-1.8l-0.5,2.8h-1l0.5-2.8h-1.6v-0.9h1.8l0.5-2.4h-1.8v-0.9h1.9l0.6-2.8h1l-0.6,2.8h1.8l0.6-2.8h1l-0.6,2.8
				h1.4v0.9h-1.6l-0.5,2.4h1.5v0.9h-1.7l-0.5,2.8h-1L275.2,286.2z M273.6,285.3h1.8l0.5-2.4h-1.8L273.6,285.3z"/>
			<path d="M281.3,283.4h1c0.6,0,1.1-0.2,1.4-0.5s0.5-0.7,0.5-1.2c0-1.2-0.6-1.8-1.7-1.8c-0.5,0-1,0.2-1.3,0.5
				c-0.3,0.3-0.5,0.7-0.5,1.2h-1.3c0-0.8,0.3-1.4,0.9-2c0.6-0.5,1.3-0.8,2.2-0.8c0.9,0,1.7,0.2,2.2,0.7s0.8,1.2,0.8,2.1
				c0,0.4-0.1,0.9-0.4,1.3s-0.7,0.7-1.1,0.9c0.5,0.2,1,0.5,1.3,0.9s0.4,0.9,0.4,1.5c0,0.9-0.3,1.6-0.9,2.1s-1.3,0.8-2.3,0.8
				s-1.7-0.3-2.3-0.8s-0.9-1.2-0.9-2h1.3c0,0.5,0.2,0.9,0.5,1.3s0.8,0.5,1.4,0.5c0.6,0,1.1-0.2,1.4-0.5s0.5-0.8,0.5-1.4
				c0-0.6-0.2-1-0.5-1.3s-0.9-0.5-1.5-0.5h-1V283.4z"/>
			<path d="M293.1,284.6h-4.2v4.4h-1.3v-10h6.2v1.1h-4.9v3.4h4.2V284.6z"/>
			<path d="M299.7,286.4h-4.2l-0.9,2.6h-1.4l3.8-10h1.1l3.8,10h-1.3L299.7,286.4z M295.9,285.3h3.4l-1.7-4.7L295.9,285.3z"/>
			<path d="M307.2,289h-1.3v-8.4l-2.5,0.9v-1.1l3.6-1.4h0.2V289z"/>
			<path d="M312.7,283.4h1c0.6,0,1.1-0.2,1.4-0.5s0.5-0.7,0.5-1.2c0-1.2-0.6-1.8-1.7-1.8c-0.5,0-1,0.2-1.3,0.5
				c-0.3,0.3-0.5,0.7-0.5,1.2h-1.3c0-0.8,0.3-1.4,0.9-2c0.6-0.5,1.3-0.8,2.2-0.8c0.9,0,1.7,0.2,2.2,0.7s0.8,1.2,0.8,2.1
				c0,0.4-0.1,0.9-0.4,1.3s-0.7,0.7-1.1,0.9c0.5,0.2,1,0.5,1.3,0.9s0.4,0.9,0.4,1.5c0,0.9-0.3,1.6-0.9,2.1s-1.3,0.8-2.3,0.8
				s-1.7-0.3-2.3-0.8s-0.9-1.2-0.9-2h1.3c0,0.5,0.2,0.9,0.5,1.3s0.8,0.5,1.4,0.5c0.6,0,1.1-0.2,1.4-0.5s0.5-0.8,0.5-1.4
				c0-0.6-0.2-1-0.5-1.3s-0.9-0.5-1.5-0.5h-1V283.4z"/>
			<path d="M324.6,284.6h-4.2v4.4h-1.3v-10h6.2v1.1h-4.9v3.4h4.2V284.6z"/>
		</g>
		<g transform="translate(410 413)">
			<rect fill="none" width="60" height="60"/>
			<rect x="0.5" y="0.5" fill="none" stroke="#E7E7E7" width="59" height="59"/>
		</g>
		<g enable-background="new    ">
			<path d="M415.2,496.2h-1.8l-0.5,2.8h-1l0.5-2.8h-1.6v-0.9h1.8l0.5-2.4h-1.8v-0.9h1.9l0.6-2.8h1l-0.6,2.8h1.8l0.6-2.8h1l-0.6,2.8
				h1.4v0.9h-1.6l-0.5,2.4h1.5v0.9h-1.7l-0.5,2.8h-1L415.2,496.2z M413.6,495.3h1.8l0.5-2.4h-1.8L413.6,495.3z"/>
			<path d="M425.3,494.6h-4.2v4.4h-1.3v-10h6.2v1.1h-4.9v3.4h4.2V494.6z"/>
			<path d="M433,494.6h-4.2v4.4h-1.3v-10h6.2v1.1h-4.9v3.4h4.2V494.6z"/>
			<path d="M440.7,494.6h-4.2v4.4h-1.3v-10h6.2v1.1h-4.9v3.4h4.2V494.6z"/>
			<path d="M448.5,494.6h-4.2v4.4H443v-10h6.2v1.1h-4.9v3.4h4.2V494.6z"/>
			<path d="M456.2,494.6H452v4.4h-1.3v-10h6.2v1.1H452v3.4h4.2V494.6z"/>
			<path d="M464,494.6h-4.2v4.4h-1.3v-10h6.2v1.1h-4.9v3.4h4.2V494.6z"/>
		</g>
		<path fill="#F9F9F9" d="M340,413h60v60h-60V413z"/>
		<g enable-background="new    ">
			<path d="M348,491.9l-0.2,0.7H346l-0.4,2.1h1.9l-0.2,0.7h-1.9l-0.6,2.7H344l0.6-2.7h-1.7l-0.6,2.7h-0.9l0.6-2.7h-1.8l0.1-0.7h1.8
				l0.4-2.1h-1.9l0.1-0.7h1.9l0.6-2.7h0.9l-0.6,2.7h1.7l0.6-2.7h0.8l-0.6,2.7H348z M345.2,492.7h-1.7l-0.5,2.1h1.7L345.2,492.7z"/>
			<path d="M354.5,490.2h-3.8v3.4h3.5v1h-3.5v4.3h-1.1v-9.8h5V490.2z"/>
			<path d="M362,493.5c0,0.9-0.1,1.7-0.3,2.4c-0.2,0.7-0.4,1.3-0.8,1.8c-0.3,0.5-0.8,0.9-1.3,1.1c-0.5,0.3-1.1,0.4-1.7,0.4
				c-0.6,0-1.2-0.1-1.7-0.3v-1.1c0.5,0.3,1.1,0.5,1.7,0.5c0.4,0,0.8-0.1,1.2-0.3s0.6-0.4,0.9-0.8c0.2-0.3,0.4-0.8,0.6-1.3
				s0.2-1.1,0.2-1.8h0c-0.4,0.8-1.1,1.3-2.2,1.3c-0.4,0-0.8-0.1-1.2-0.2c-0.4-0.1-0.7-0.4-0.9-0.6c-0.3-0.3-0.5-0.6-0.6-1
				s-0.2-0.8-0.2-1.2c0-0.5,0.1-0.9,0.2-1.3s0.4-0.7,0.7-1c0.3-0.3,0.6-0.5,1-0.7s0.8-0.2,1.3-0.2c0.5,0,0.9,0.1,1.3,0.3
				c0.4,0.2,0.7,0.5,1,0.9c0.3,0.4,0.5,0.8,0.6,1.4S362,492.8,362,493.5z M360.8,492.5c0-0.4,0-0.7-0.1-1s-0.2-0.6-0.4-0.8
				c-0.2-0.2-0.4-0.4-0.6-0.5c-0.2-0.1-0.5-0.2-0.8-0.2c-0.3,0-0.5,0.1-0.8,0.2c-0.2,0.1-0.4,0.3-0.6,0.5c-0.2,0.2-0.3,0.4-0.4,0.7
				c-0.1,0.3-0.1,0.6-0.1,0.9c0,0.3,0,0.7,0.1,0.9s0.2,0.5,0.4,0.7c0.2,0.2,0.4,0.3,0.6,0.4s0.5,0.2,0.8,0.2c0.3,0,0.5,0,0.7-0.1
				c0.2-0.1,0.4-0.2,0.6-0.4c0.2-0.2,0.3-0.4,0.4-0.6C360.7,493,360.8,492.8,360.8,492.5z"/>
			<path d="M368.9,490.2h-3.8v3.4h3.5v1h-3.5v4.3h-1.1v-9.8h5V490.2z"/>
			<path d="M376.4,493.5c0,0.9-0.1,1.7-0.3,2.4c-0.2,0.7-0.4,1.3-0.8,1.8c-0.3,0.5-0.8,0.9-1.3,1.1c-0.5,0.3-1.1,0.4-1.7,0.4
				c-0.6,0-1.2-0.1-1.7-0.3v-1.1c0.5,0.3,1.1,0.5,1.7,0.5c0.4,0,0.8-0.1,1.2-0.3s0.6-0.4,0.9-0.8c0.2-0.3,0.4-0.8,0.6-1.3
				s0.2-1.1,0.2-1.8h0c-0.4,0.8-1.1,1.3-2.2,1.3c-0.4,0-0.8-0.1-1.2-0.2c-0.4-0.1-0.7-0.4-0.9-0.6c-0.3-0.3-0.5-0.6-0.6-1
				s-0.2-0.8-0.2-1.2c0-0.5,0.1-0.9,0.2-1.3s0.4-0.7,0.7-1c0.3-0.3,0.6-0.5,1-0.7s0.8-0.2,1.3-0.2c0.5,0,0.9,0.1,1.3,0.3
				c0.4,0.2,0.7,0.5,1,0.9c0.3,0.4,0.5,0.8,0.6,1.4S376.4,492.8,376.4,493.5z M375.1,492.5c0-0.4,0-0.7-0.1-1s-0.2-0.6-0.4-0.8
				c-0.2-0.2-0.4-0.4-0.6-0.5c-0.2-0.1-0.5-0.2-0.8-0.2c-0.3,0-0.5,0.1-0.8,0.2c-0.2,0.1-0.4,0.3-0.6,0.5c-0.2,0.2-0.3,0.4-0.4,0.7
				c-0.1,0.3-0.1,0.6-0.1,0.9c0,0.3,0,0.7,0.1,0.9s0.2,0.5,0.4,0.7c0.2,0.2,0.4,0.3,0.6,0.4s0.5,0.2,0.8,0.2c0.3,0,0.5,0,0.7-0.1
				c0.2-0.1,0.4-0.2,0.6-0.4c0.2-0.2,0.3-0.4,0.4-0.6C375.1,493,375.1,492.8,375.1,492.5z"/>
			<path d="M383.3,490.2h-3.8v3.4h3.5v1h-3.5v4.3h-1.1v-9.8h5V490.2z"/>
			<path d="M390.7,493.5c0,0.9-0.1,1.7-0.3,2.4c-0.2,0.7-0.4,1.3-0.8,1.8c-0.3,0.5-0.8,0.9-1.3,1.1c-0.5,0.3-1.1,0.4-1.7,0.4
				c-0.6,0-1.2-0.1-1.7-0.3v-1.1c0.5,0.3,1.1,0.5,1.7,0.5c0.4,0,0.8-0.1,1.2-0.3s0.6-0.4,0.9-0.8c0.2-0.3,0.4-0.8,0.6-1.3
				s0.2-1.1,0.2-1.8h0c-0.4,0.8-1.1,1.3-2.2,1.3c-0.4,0-0.8-0.1-1.2-0.2c-0.4-0.1-0.7-0.4-0.9-0.6c-0.3-0.3-0.5-0.6-0.6-1
				s-0.2-0.8-0.2-1.2c0-0.5,0.1-0.9,0.2-1.3s0.4-0.7,0.7-1c0.3-0.3,0.6-0.5,1-0.7s0.8-0.2,1.3-0.2c0.5,0,0.9,0.1,1.3,0.3
				c0.4,0.2,0.7,0.5,1,0.9c0.3,0.4,0.5,0.8,0.6,1.4S390.7,492.8,390.7,493.5z M389.5,492.5c0-0.4,0-0.7-0.1-1s-0.2-0.6-0.4-0.8
				c-0.2-0.2-0.4-0.4-0.6-0.5c-0.2-0.1-0.5-0.2-0.8-0.2c-0.3,0-0.5,0.1-0.8,0.2c-0.2,0.1-0.4,0.3-0.6,0.5c-0.2,0.2-0.3,0.4-0.4,0.7
				c-0.1,0.3-0.1,0.6-0.1,0.9c0,0.3,0,0.7,0.1,0.9s0.2,0.5,0.4,0.7c0.2,0.2,0.4,0.3,0.6,0.4s0.5,0.2,0.8,0.2c0.3,0,0.5,0,0.7-0.1
				c0.2-0.1,0.4-0.2,0.6-0.4c0.2-0.2,0.3-0.4,0.4-0.6C389.5,493,389.5,492.8,389.5,492.5z"/>
		</g>
		<g enable-background="new    ">
			<path d="M213.8,385v-8.5h2.4c0.7,0,1.4,0.2,2,0.5s1,0.8,1.3,1.4s0.5,1.3,0.5,2.1v0.5c0,0.8-0.2,1.5-0.5,2.1s-0.8,1.1-1.3,1.4
				s-1.2,0.5-2,0.5H213.8z M214.9,377.4v6.7h1.2c0.9,0,1.5-0.3,2-0.8c0.5-0.5,0.7-1.3,0.7-2.3v-0.5c0-1-0.2-1.7-0.7-2.3
				c-0.5-0.5-1.1-0.8-1.9-0.8H214.9z"/>
			<path d="M221.2,381.8c0-0.6,0.1-1.2,0.4-1.7s0.6-0.9,1-1.1s0.9-0.4,1.5-0.4c0.9,0,1.6,0.3,2.1,0.9s0.8,1.4,0.8,2.4v0.1
				c0,0.6-0.1,1.2-0.4,1.7s-0.6,0.9-1,1.1s-0.9,0.4-1.5,0.4c-0.9,0-1.6-0.3-2.1-0.9S221.2,382.8,221.2,381.8L221.2,381.8z
				 M222.3,381.9c0,0.7,0.2,1.3,0.5,1.7s0.8,0.6,1.3,0.6c0.6,0,1-0.2,1.3-0.6s0.5-1,0.5-1.8c0-0.7-0.2-1.3-0.5-1.7s-0.8-0.6-1.3-0.6
				c-0.5,0-1,0.2-1.3,0.6S222.3,381.1,222.3,381.9z"/>
			<path d="M234,383.5l1.2-4.8h1.1l-1.8,6.3h-0.9l-1.5-4.8l-1.5,4.8h-0.9l-1.8-6.3h1.1l1.2,4.7l1.5-4.7h0.9L234,383.5z"/>
			<path d="M238.4,378.7l0,0.8c0.5-0.6,1.1-0.9,1.9-0.9c1.3,0,2,0.8,2,2.3v4.2h-1.1v-4.2c0-0.5-0.1-0.8-0.3-1s-0.5-0.3-1-0.3
				c-0.4,0-0.7,0.1-0.9,0.3s-0.5,0.4-0.6,0.7v4.5h-1.1v-6.3H238.4z"/>
		</g>
		<g enable-background="new    ">
			<path d="M197.1,399v-8.5h2.8c0.9,0,1.6,0.2,2.1,0.6s0.7,0.9,0.7,1.7c0,0.4-0.1,0.8-0.3,1.1s-0.5,0.5-0.9,0.7
				c0.5,0.1,0.8,0.4,1.1,0.7s0.4,0.8,0.4,1.3c0,0.8-0.2,1.4-0.7,1.8s-1.2,0.7-2.1,0.7H197.1z M198.2,394.1h1.7
				c0.5,0,0.9-0.1,1.2-0.4c0.3-0.2,0.4-0.6,0.4-1c0-0.5-0.1-0.8-0.4-1c-0.3-0.2-0.7-0.3-1.2-0.3h-1.7V394.1z M198.2,395v3.1h1.9
				c0.5,0,0.9-0.1,1.2-0.4s0.5-0.6,0.5-1.1c0-1-0.6-1.5-1.7-1.5H198.2z"/>
			<path d="M208.3,399c-0.1-0.1-0.1-0.3-0.2-0.7c-0.5,0.5-1.1,0.8-1.8,0.8c-0.6,0-1.1-0.2-1.5-0.5s-0.6-0.8-0.6-1.3
				c0-0.7,0.3-1.2,0.8-1.5s1.2-0.5,2.1-0.5h1.1v-0.5c0-0.4-0.1-0.7-0.3-0.9s-0.6-0.3-1-0.3c-0.4,0-0.7,0.1-1,0.3s-0.4,0.4-0.4,0.7
				h-1.1c0-0.3,0.1-0.6,0.3-0.9s0.5-0.5,0.9-0.7s0.8-0.3,1.3-0.3c0.7,0,1.3,0.2,1.7,0.5s0.6,0.9,0.6,1.5v2.9c0,0.6,0.1,1,0.2,1.4
				v0.1H208.3z M206.5,398.2c0.3,0,0.7-0.1,1-0.3s0.5-0.4,0.7-0.7v-1.3h-0.8c-1.3,0-2,0.4-2,1.2c0,0.3,0.1,0.6,0.3,0.8
				S206.2,398.2,206.5,398.2z"/>
			<path d="M213.5,398.2c0.4,0,0.7-0.1,1-0.4s0.4-0.5,0.5-0.9h1c0,0.4-0.1,0.7-0.4,1s-0.5,0.6-0.9,0.8s-0.8,0.3-1.2,0.3
				c-0.9,0-1.5-0.3-2.1-0.9s-0.8-1.4-0.8-2.4v-0.2c0-0.6,0.1-1.2,0.3-1.6s0.6-0.9,1-1.1s0.9-0.4,1.5-0.4c0.7,0,1.3,0.2,1.8,0.6
				s0.7,1,0.8,1.7h-1c0-0.4-0.2-0.7-0.5-1s-0.6-0.4-1-0.4c-0.6,0-1,0.2-1.3,0.6s-0.5,1-0.5,1.7v0.2c0,0.7,0.2,1.3,0.5,1.7
				S212.9,398.2,213.5,398.2z"/>
			<path d="M219,396.1l-0.7,0.7v2.2h-1.1v-9h1.1v5.4l0.6-0.7l2-2.1h1.3l-2.5,2.6l2.8,3.7h-1.3L219,396.1z"/>
			<path d="M222.9,395.8c0-1,0.2-1.8,0.7-2.4s1.1-0.9,1.8-0.9c0.8,0,1.4,0.3,1.8,0.8l0.1-0.7h1v6.2c0,0.8-0.2,1.5-0.7,1.9
				s-1.1,0.7-2,0.7c-0.5,0-0.9-0.1-1.3-0.3s-0.8-0.5-1-0.8l0.6-0.7c0.5,0.6,1,0.9,1.7,0.9c0.5,0,0.9-0.1,1.2-0.4s0.4-0.7,0.4-1.3
				v-0.5c-0.4,0.5-1,0.8-1.8,0.8c-0.7,0-1.3-0.3-1.8-0.9S222.9,396.8,222.9,395.8z M224,395.9c0,0.7,0.1,1.3,0.4,1.7
				s0.7,0.6,1.2,0.6c0.7,0,1.2-0.3,1.5-0.9v-2.9c-0.3-0.6-0.8-0.9-1.5-0.9c-0.5,0-0.9,0.2-1.2,0.6S224,395.1,224,395.9z"/>
			<path d="M233,393.6c-0.2,0-0.3,0-0.5,0c-0.7,0-1.2,0.3-1.4,0.9v4.5h-1.1v-6.3h1.1l0,0.7c0.4-0.6,0.9-0.8,1.5-0.8
				c0.2,0,0.4,0,0.5,0.1V393.6z"/>
			<path d="M233.6,395.8c0-0.6,0.1-1.2,0.4-1.7s0.6-0.9,1-1.1s0.9-0.4,1.5-0.4c0.9,0,1.6,0.3,2.1,0.9s0.8,1.4,0.8,2.4v0.1
				c0,0.6-0.1,1.2-0.4,1.7s-0.6,0.9-1,1.1s-0.9,0.4-1.5,0.4c-0.9,0-1.6-0.3-2.1-0.9S233.6,396.8,233.6,395.8L233.6,395.8z
				 M234.7,395.9c0,0.7,0.2,1.3,0.5,1.7s0.8,0.6,1.3,0.6c0.6,0,1-0.2,1.3-0.6s0.5-1,0.5-1.8c0-0.7-0.2-1.3-0.5-1.7s-0.8-0.6-1.3-0.6
				c-0.5,0-1,0.2-1.3,0.6S234.7,395.1,234.7,395.9z"/>
			<path d="M244.6,398.4c-0.4,0.5-1,0.7-1.9,0.7c-0.7,0-1.2-0.2-1.5-0.6s-0.5-1-0.5-1.7v-4.1h1.1v4.1c0,1,0.4,1.4,1.2,1.4
				c0.8,0,1.4-0.3,1.7-0.9v-4.6h1.1v6.3h-1L244.6,398.4z"/>
			<path d="M248.3,392.7l0,0.8c0.5-0.6,1.1-0.9,1.9-0.9c1.3,0,2,0.8,2,2.3v4.2h-1.1v-4.2c0-0.5-0.1-0.8-0.3-1s-0.5-0.3-1-0.3
				c-0.4,0-0.7,0.1-0.9,0.3s-0.5,0.4-0.6,0.7v4.5h-1.1v-6.3H248.3z"/>
			<path d="M253.7,395.8c0-1,0.2-1.8,0.7-2.3s1.1-0.9,1.8-0.9c0.7,0,1.3,0.3,1.8,0.8V390h1.1v9h-1l-0.1-0.7c-0.4,0.5-1,0.8-1.8,0.8
				c-0.7,0-1.3-0.3-1.8-0.9S253.7,396.8,253.7,395.8L253.7,395.8z M254.8,395.9c0,0.7,0.1,1.3,0.4,1.7s0.7,0.6,1.2,0.6
				c0.7,0,1.2-0.3,1.5-0.9v-2.9c-0.3-0.6-0.8-0.9-1.5-0.9c-0.5,0-0.9,0.2-1.2,0.6S254.8,395.1,254.8,395.9z"/>
		</g>
		<g enable-background="new    ">
			<path d="M361.8,399h-1.1v-3.9h-4.3v3.9h-1.1v-8.5h1.1v3.7h4.3v-3.7h1.1V399z"/>
			<path d="M363.4,395.8c0-0.6,0.1-1.2,0.4-1.7s0.6-0.9,1-1.1s0.9-0.4,1.5-0.4c0.9,0,1.6,0.3,2.1,0.9s0.8,1.4,0.8,2.4v0.1
				c0,0.6-0.1,1.2-0.4,1.7s-0.6,0.9-1,1.1s-0.9,0.4-1.5,0.4c-0.9,0-1.6-0.3-2.1-0.9S363.4,396.8,363.4,395.8L363.4,395.8z
				 M364.4,395.9c0,0.7,0.2,1.3,0.5,1.7s0.8,0.6,1.3,0.6c0.6,0,1-0.2,1.3-0.6s0.5-1,0.5-1.8c0-0.7-0.2-1.3-0.5-1.7s-0.8-0.6-1.3-0.6
				c-0.5,0-1,0.2-1.3,0.6S364.4,395.1,364.4,395.9z"/>
			<path d="M372.5,397.5l1.6-4.9h1.1l-2.3,6.3h-0.8l-2.3-6.3h1.1L372.5,397.5z"/>
			<path d="M378.8,399.1c-0.9,0-1.6-0.3-2.1-0.8s-0.8-1.3-0.8-2.3v-0.2c0-0.6,0.1-1.2,0.4-1.7s0.6-0.9,1-1.2s0.9-0.4,1.4-0.4
				c0.8,0,1.5,0.3,1.9,0.8s0.7,1.3,0.7,2.3v0.5h-4.3c0,0.6,0.2,1.1,0.5,1.5s0.8,0.6,1.3,0.6c0.4,0,0.7-0.1,1-0.2s0.5-0.4,0.7-0.6
				l0.7,0.5C380.6,398.7,379.8,399.1,378.8,399.1z M378.6,393.4c-0.4,0-0.8,0.2-1.1,0.5s-0.5,0.8-0.6,1.3h3.2v-0.1
				c0-0.6-0.2-1-0.4-1.3S379.1,393.4,378.6,393.4z"/>
			<path d="M385.6,393.6c-0.2,0-0.3,0-0.5,0c-0.7,0-1.2,0.3-1.4,0.9v4.5h-1.1v-6.3h1.1l0,0.7c0.4-0.6,0.9-0.8,1.5-0.8
				c0.2,0,0.4,0,0.5,0.1V393.6z"/>
		</g>
		<g enable-background="new    ">
			<path d="M294,377.4h-2.7v7.6h-1.1v-7.6h-2.7v-0.9h6.6V377.4z"/>
			<path d="M297.1,385.1c-0.9,0-1.6-0.3-2.1-0.8s-0.8-1.3-0.8-2.3v-0.2c0-0.6,0.1-1.2,0.4-1.7s0.6-0.9,1-1.2s0.9-0.4,1.4-0.4
				c0.8,0,1.5,0.3,1.9,0.8s0.7,1.3,0.7,2.3v0.5h-4.3c0,0.6,0.2,1.1,0.5,1.5s0.8,0.6,1.3,0.6c0.4,0,0.7-0.1,1-0.2s0.5-0.4,0.7-0.6
				l0.7,0.5C299,384.7,298.2,385.1,297.1,385.1z M297,379.4c-0.4,0-0.8,0.2-1.1,0.5s-0.5,0.8-0.6,1.3h3.2v-0.1c0-0.6-0.2-1-0.4-1.3
				S297.5,379.4,297,379.4z"/>
			<path d="M303,381l1.4-2.3h1.3l-2.1,3.1l2.1,3.2h-1.3l-1.5-2.4l-1.5,2.4h-1.3l2.1-3.2l-2.1-3.1h1.3L303,381z"/>
			<path d="M308.3,377.1v1.5h1.2v0.8h-1.2v3.9c0,0.3,0.1,0.4,0.2,0.6s0.3,0.2,0.5,0.2c0.1,0,0.3,0,0.5-0.1v0.9
				c-0.3,0.1-0.6,0.1-0.8,0.1c-0.5,0-0.8-0.1-1.1-0.4s-0.4-0.7-0.4-1.2v-3.9H306v-0.8h1.2v-1.5H308.3z"/>
		</g>
		<g enable-background="new    ">
			<path d="M269.1,399v-8.5h2.8c0.9,0,1.6,0.2,2.1,0.6s0.7,0.9,0.7,1.7c0,0.4-0.1,0.8-0.3,1.1s-0.5,0.5-0.9,0.7
				c0.5,0.1,0.8,0.4,1.1,0.7s0.4,0.8,0.4,1.3c0,0.8-0.2,1.4-0.7,1.8s-1.2,0.7-2.1,0.7H269.1z M270.2,394.1h1.7
				c0.5,0,0.9-0.1,1.2-0.4c0.3-0.2,0.4-0.6,0.4-1c0-0.5-0.1-0.8-0.4-1c-0.3-0.2-0.7-0.3-1.2-0.3h-1.7V394.1z M270.2,395v3.1h1.9
				c0.5,0,0.9-0.1,1.2-0.4s0.5-0.6,0.5-1.1c0-1-0.6-1.5-1.7-1.5H270.2z"/>
			<path d="M280.3,399c-0.1-0.1-0.1-0.3-0.2-0.7c-0.5,0.5-1.1,0.8-1.8,0.8c-0.6,0-1.1-0.2-1.5-0.5s-0.6-0.8-0.6-1.3
				c0-0.7,0.3-1.2,0.8-1.5s1.2-0.5,2.1-0.5h1.1v-0.5c0-0.4-0.1-0.7-0.3-0.9s-0.6-0.3-1-0.3c-0.4,0-0.7,0.1-1,0.3s-0.4,0.4-0.4,0.7
				h-1.1c0-0.3,0.1-0.6,0.3-0.9s0.5-0.5,0.9-0.7s0.8-0.3,1.3-0.3c0.7,0,1.3,0.2,1.7,0.5s0.6,0.9,0.6,1.5v2.9c0,0.6,0.1,1,0.2,1.4
				v0.1H280.3z M278.5,398.2c0.3,0,0.7-0.1,1-0.3s0.5-0.4,0.7-0.7v-1.3h-0.8c-1.3,0-2,0.4-2,1.2c0,0.3,0.1,0.6,0.3,0.8
				S278.2,398.2,278.5,398.2z"/>
			<path d="M285.5,398.2c0.4,0,0.7-0.1,1-0.4s0.4-0.5,0.5-0.9h1c0,0.4-0.1,0.7-0.4,1s-0.5,0.6-0.9,0.8s-0.8,0.3-1.2,0.3
				c-0.9,0-1.5-0.3-2.1-0.9s-0.8-1.4-0.8-2.4v-0.2c0-0.6,0.1-1.2,0.3-1.6s0.6-0.9,1-1.1s0.9-0.4,1.5-0.4c0.7,0,1.3,0.2,1.8,0.6
				s0.7,1,0.8,1.7h-1c0-0.4-0.2-0.7-0.5-1s-0.6-0.4-1-0.4c-0.6,0-1,0.2-1.3,0.6s-0.5,1-0.5,1.7v0.2c0,0.7,0.2,1.3,0.5,1.7
				S284.9,398.2,285.5,398.2z"/>
			<path d="M291,396.1l-0.7,0.7v2.2h-1.1v-9h1.1v5.4l0.6-0.7l2-2.1h1.3l-2.5,2.6l2.8,3.7h-1.3L291,396.1z"/>
			<path d="M294.9,395.8c0-1,0.2-1.8,0.7-2.4s1.1-0.9,1.8-0.9c0.8,0,1.4,0.3,1.8,0.8l0.1-0.7h1v6.2c0,0.8-0.2,1.5-0.7,1.9
				s-1.1,0.7-2,0.7c-0.5,0-0.9-0.1-1.3-0.3s-0.8-0.5-1-0.8l0.6-0.7c0.5,0.6,1,0.9,1.7,0.9c0.5,0,0.9-0.1,1.2-0.4s0.4-0.7,0.4-1.3
				v-0.5c-0.4,0.5-1,0.8-1.8,0.8c-0.7,0-1.3-0.3-1.8-0.9S294.9,396.8,294.9,395.8z M296,395.9c0,0.7,0.1,1.3,0.4,1.7
				s0.7,0.6,1.2,0.6c0.7,0,1.2-0.3,1.5-0.9v-2.9c-0.3-0.6-0.8-0.9-1.5-0.9c-0.5,0-0.9,0.2-1.2,0.6S296,395.1,296,395.9z"/>
			<path d="M305,393.6c-0.2,0-0.3,0-0.5,0c-0.7,0-1.2,0.3-1.4,0.9v4.5h-1.1v-6.3h1.1l0,0.7c0.4-0.6,0.9-0.8,1.5-0.8
				c0.2,0,0.4,0,0.5,0.1V393.6z"/>
			<path d="M305.6,395.8c0-0.6,0.1-1.2,0.4-1.7s0.6-0.9,1-1.1s0.9-0.4,1.5-0.4c0.9,0,1.6,0.3,2.1,0.9s0.8,1.4,0.8,2.4v0.1
				c0,0.6-0.1,1.2-0.4,1.7s-0.6,0.9-1,1.1s-0.9,0.4-1.5,0.4c-0.9,0-1.6-0.3-2.1-0.9S305.6,396.8,305.6,395.8L305.6,395.8z
				 M306.7,395.9c0,0.7,0.2,1.3,0.5,1.7s0.8,0.6,1.3,0.6c0.6,0,1-0.2,1.3-0.6s0.5-1,0.5-1.8c0-0.7-0.2-1.3-0.5-1.7s-0.8-0.6-1.3-0.6
				c-0.5,0-1,0.2-1.3,0.6S306.7,395.1,306.7,395.9z"/>
			<path d="M316.6,398.4c-0.4,0.5-1,0.7-1.9,0.7c-0.7,0-1.2-0.2-1.5-0.6s-0.5-1-0.5-1.7v-4.1h1.1v4.1c0,1,0.4,1.4,1.2,1.4
				c0.8,0,1.4-0.3,1.7-0.9v-4.6h1.1v6.3h-1L316.6,398.4z"/>
			<path d="M320.3,392.7l0,0.8c0.5-0.6,1.1-0.9,1.9-0.9c1.3,0,2,0.8,2,2.3v4.2h-1.1v-4.2c0-0.5-0.1-0.8-0.3-1s-0.5-0.3-1-0.3
				c-0.4,0-0.7,0.1-0.9,0.3s-0.5,0.4-0.6,0.7v4.5h-1.1v-6.3H320.3z"/>
			<path d="M325.7,395.8c0-1,0.2-1.8,0.7-2.3s1.1-0.9,1.8-0.9c0.7,0,1.3,0.3,1.8,0.8V390h1.1v9h-1l-0.1-0.7c-0.4,0.5-1,0.8-1.8,0.8
				c-0.7,0-1.3-0.3-1.8-0.9S325.7,396.8,325.7,395.8L325.7,395.8z M326.8,395.9c0,0.7,0.1,1.3,0.4,1.7s0.7,0.6,1.2,0.6
				c0.7,0,1.2-0.3,1.5-0.9v-2.9c-0.3-0.6-0.8-0.9-1.5-0.9c-0.5,0-0.9,0.2-1.2,0.6S326.8,395.1,326.8,395.9z"/>
		</g>
		<g enable-background="new    ">
			<path d="M136.4,595v-8.5h2.4c0.7,0,1.4,0.2,2,0.5s1,0.8,1.3,1.4s0.5,1.3,0.5,2.1v0.5c0,0.8-0.2,1.5-0.5,2.1s-0.8,1.1-1.3,1.4
				s-1.2,0.5-2,0.5H136.4z M137.5,587.4v6.7h1.2c0.9,0,1.5-0.3,2-0.8c0.5-0.5,0.7-1.3,0.7-2.3v-0.5c0-1-0.2-1.7-0.7-2.3
				c-0.5-0.5-1.1-0.8-1.9-0.8H137.5z"/>
			<path d="M144.1,587c0-0.2,0.1-0.3,0.2-0.4s0.3-0.2,0.5-0.2s0.4,0.1,0.5,0.2s0.2,0.3,0.2,0.4s-0.1,0.3-0.2,0.4s-0.3,0.2-0.5,0.2
				s-0.4-0.1-0.5-0.2S144.1,587.2,144.1,587z M145.2,595h-1.1v-6.3h1.1V595z"/>
			<path d="M150.7,593.3c0-0.3-0.1-0.5-0.3-0.7s-0.6-0.3-1.2-0.4s-1-0.3-1.3-0.4s-0.6-0.4-0.7-0.6s-0.2-0.5-0.2-0.8
				c0-0.5,0.2-1,0.7-1.3s1-0.5,1.7-0.5c0.7,0,1.3,0.2,1.7,0.6s0.7,0.8,0.7,1.4h-1.1c0-0.3-0.1-0.6-0.4-0.8s-0.6-0.3-1-0.3
				c-0.4,0-0.7,0.1-0.9,0.3s-0.3,0.4-0.3,0.7c0,0.3,0.1,0.5,0.3,0.6s0.6,0.3,1.1,0.4s1,0.3,1.3,0.4s0.6,0.4,0.7,0.6s0.2,0.5,0.2,0.9
				c0,0.6-0.2,1-0.7,1.4s-1,0.5-1.8,0.5c-0.5,0-1-0.1-1.3-0.3s-0.7-0.4-0.9-0.8s-0.3-0.7-0.3-1h1.1c0,0.4,0.2,0.7,0.4,0.9
				s0.6,0.3,1.1,0.3c0.4,0,0.7-0.1,1-0.2S150.7,593.6,150.7,593.3z"/>
			<path d="M157.1,595c-0.1-0.1-0.1-0.3-0.2-0.7c-0.5,0.5-1.1,0.8-1.8,0.8c-0.6,0-1.1-0.2-1.5-0.5s-0.6-0.8-0.6-1.3
				c0-0.7,0.3-1.2,0.8-1.5s1.2-0.5,2.1-0.5h1.1v-0.5c0-0.4-0.1-0.7-0.3-0.9s-0.6-0.3-1-0.3c-0.4,0-0.7,0.1-1,0.3s-0.4,0.4-0.4,0.7
				h-1.1c0-0.3,0.1-0.6,0.3-0.9s0.5-0.5,0.9-0.7s0.8-0.3,1.3-0.3c0.7,0,1.3,0.2,1.7,0.5s0.6,0.9,0.6,1.5v2.9c0,0.6,0.1,1,0.2,1.4
				v0.1H157.1z M155.3,594.2c0.3,0,0.7-0.1,1-0.3s0.5-0.4,0.7-0.7v-1.3h-0.8c-1.3,0-2,0.4-2,1.2c0,0.3,0.1,0.6,0.3,0.8
				S154.9,594.2,155.3,594.2z"/>
			<path d="M165.1,591.9c0,1-0.2,1.7-0.7,2.3s-1,0.9-1.8,0.9c-0.8,0-1.4-0.3-1.9-0.8l-0.1,0.7h-1v-9h1.1v3.4c0.4-0.5,1-0.8,1.8-0.8
				s1.4,0.3,1.8,0.9S165.1,590.8,165.1,591.9L165.1,591.9z M164,591.8c0-0.7-0.1-1.3-0.4-1.7s-0.7-0.6-1.2-0.6c-0.7,0-1.2,0.3-1.5,1
				v2.7c0.3,0.7,0.8,1,1.6,1c0.5,0,0.9-0.2,1.2-0.6S164,592.6,164,591.8z"/>
			<path d="M167.6,595h-1.1v-9h1.1V595z"/>
			<path d="M172,595.1c-0.9,0-1.6-0.3-2.1-0.8s-0.8-1.3-0.8-2.3v-0.2c0-0.6,0.1-1.2,0.4-1.7s0.6-0.9,1-1.2s0.9-0.4,1.4-0.4
				c0.8,0,1.5,0.3,1.9,0.8s0.7,1.3,0.7,2.3v0.5h-4.3c0,0.6,0.2,1.1,0.5,1.5s0.8,0.6,1.3,0.6c0.4,0,0.7-0.1,1-0.2s0.5-0.4,0.7-0.6
				l0.7,0.5C173.8,594.7,173,595.1,172,595.1z M171.8,589.4c-0.4,0-0.8,0.2-1.1,0.5s-0.5,0.8-0.6,1.3h3.2v-0.1c0-0.6-0.2-1-0.4-1.3
				S172.3,589.4,171.8,589.4z"/>
			<path d="M175.4,591.8c0-1,0.2-1.8,0.7-2.3s1.1-0.9,1.8-0.9c0.7,0,1.3,0.3,1.8,0.8V586h1.1v9h-1l-0.1-0.7c-0.4,0.5-1,0.8-1.8,0.8
				c-0.7,0-1.3-0.3-1.8-0.9S175.4,592.8,175.4,591.8L175.4,591.8z M176.5,591.9c0,0.7,0.1,1.3,0.4,1.7s0.7,0.6,1.2,0.6
				c0.7,0,1.2-0.3,1.5-0.9v-2.9c-0.3-0.6-0.8-0.9-1.5-0.9c-0.5,0-0.9,0.2-1.2,0.6S176.5,591.1,176.5,591.9z"/>
		</g>
		<g enable-background="new    ">
			<path d="M155.5,601.4h-2.7v7.6h-1.1v-7.6h-2.7v-0.9h6.6V601.4z"/>
			<path d="M158.6,609.1c-0.9,0-1.6-0.3-2.1-0.8s-0.8-1.3-0.8-2.3v-0.2c0-0.6,0.1-1.2,0.4-1.7s0.6-0.9,1-1.2s0.9-0.4,1.4-0.4
				c0.8,0,1.5,0.3,1.9,0.8s0.7,1.3,0.7,2.3v0.5h-4.3c0,0.6,0.2,1.1,0.5,1.5s0.8,0.6,1.3,0.6c0.4,0,0.7-0.1,1-0.2s0.5-0.4,0.7-0.6
				l0.7,0.5C160.5,608.7,159.7,609.1,158.6,609.1z M158.5,603.4c-0.4,0-0.8,0.2-1.1,0.5s-0.5,0.8-0.6,1.3h3.2v-0.1
				c0-0.6-0.2-1-0.4-1.3S158.9,603.4,158.5,603.4z"/>
			<path d="M164.5,605l1.4-2.3h1.3l-2.1,3.1l2.1,3.2H166l-1.5-2.4L163,609h-1.3l2.1-3.2l-2.1-3.1h1.3L164.5,605z"/>
			<path d="M169.8,601.1v1.5h1.2v0.8h-1.2v3.9c0,0.3,0.1,0.4,0.2,0.6s0.3,0.2,0.5,0.2c0.1,0,0.3,0,0.5-0.1v0.9
				c-0.3,0.1-0.6,0.1-0.8,0.1c-0.5,0-0.8-0.1-1.1-0.4s-0.4-0.7-0.4-1.2v-3.9h-1.2v-0.8h1.2v-1.5H169.8z"/>
		</g>
		<g enable-background="new    ">
			<path d="M85.5,391.4h-2.7v7.6h-1.1v-7.6h-2.7v-0.9h6.6V391.4z"/>
			<path d="M88.6,399.1c-0.9,0-1.6-0.3-2.1-0.8s-0.8-1.3-0.8-2.3v-0.2c0-0.6,0.1-1.2,0.4-1.7s0.6-0.9,1-1.2s0.9-0.4,1.4-0.4
				c0.8,0,1.5,0.3,1.9,0.8s0.7,1.3,0.7,2.3v0.5h-4.3c0,0.6,0.2,1.1,0.5,1.5s0.8,0.6,1.3,0.6c0.4,0,0.7-0.1,1-0.2s0.5-0.4,0.7-0.6
				l0.7,0.5C90.5,398.7,89.7,399.1,88.6,399.1z M88.5,393.4c-0.4,0-0.8,0.2-1.1,0.5s-0.5,0.8-0.6,1.3H90v-0.1c0-0.6-0.2-1-0.4-1.3
				S88.9,393.4,88.5,393.4z"/>
			<path d="M94.5,395l1.4-2.3h1.3l-2.1,3.1l2.1,3.2H96l-1.5-2.4L93,399h-1.3l2.1-3.2l-2.1-3.1h1.3L94.5,395z"/>
			<path d="M99.8,391.1v1.5h1.2v0.8h-1.2v3.9c0,0.3,0.1,0.4,0.2,0.6s0.3,0.2,0.5,0.2c0.1,0,0.3,0,0.5-0.1v0.9
				c-0.3,0.1-0.6,0.1-0.8,0.1c-0.5,0-0.8-0.1-1.1-0.4s-0.4-0.7-0.4-1.2v-3.9h-1.2v-0.8h1.2v-1.5H99.8z"/>
		</g>
		<g enable-background="new    ">
			<path d="M138.1,385v-8.5h2.8c0.9,0,1.6,0.2,2.1,0.6s0.7,0.9,0.7,1.7c0,0.4-0.1,0.8-0.3,1.1s-0.5,0.5-0.9,0.7
				c0.5,0.1,0.8,0.4,1.1,0.7s0.4,0.8,0.4,1.3c0,0.8-0.2,1.4-0.7,1.8s-1.2,0.7-2.1,0.7H138.1z M139.2,380.1h1.7
				c0.5,0,0.9-0.1,1.2-0.4c0.3-0.2,0.4-0.6,0.4-1c0-0.5-0.1-0.8-0.4-1c-0.3-0.2-0.7-0.3-1.2-0.3h-1.7V380.1z M139.2,381v3.1h1.9
				c0.5,0,0.9-0.1,1.2-0.4s0.5-0.6,0.5-1.1c0-1-0.6-1.5-1.7-1.5H139.2z"/>
			<path d="M145.1,381.8c0-0.6,0.1-1.2,0.4-1.7s0.6-0.9,1-1.1s0.9-0.4,1.5-0.4c0.9,0,1.6,0.3,2.1,0.9s0.8,1.4,0.8,2.4v0.1
				c0,0.6-0.1,1.2-0.4,1.7s-0.6,0.9-1,1.1s-0.9,0.4-1.5,0.4c-0.9,0-1.6-0.3-2.1-0.9S145.1,382.8,145.1,381.8L145.1,381.8z
				 M146.2,381.9c0,0.7,0.2,1.3,0.5,1.7s0.8,0.6,1.3,0.6c0.6,0,1-0.2,1.3-0.6s0.5-1,0.5-1.8c0-0.7-0.2-1.3-0.5-1.7s-0.8-0.6-1.3-0.6
				c-0.5,0-1,0.2-1.3,0.6S146.2,381.1,146.2,381.9z"/>
			<path d="M155.3,379.6c-0.2,0-0.3,0-0.5,0c-0.7,0-1.2,0.3-1.4,0.9v4.5h-1.1v-6.3h1.1l0,0.7c0.4-0.6,0.9-0.8,1.5-0.8
				c0.2,0,0.4,0,0.5,0.1V379.6z"/>
			<path d="M155.9,381.8c0-1,0.2-1.8,0.7-2.3s1.1-0.9,1.8-0.9c0.7,0,1.3,0.3,1.8,0.8V376h1.1v9h-1l-0.1-0.7c-0.4,0.5-1,0.8-1.8,0.8
				c-0.7,0-1.3-0.3-1.8-0.9S155.9,382.8,155.9,381.8L155.9,381.8z M157,381.9c0,0.7,0.1,1.3,0.4,1.7s0.7,0.6,1.2,0.6
				c0.7,0,1.2-0.3,1.5-0.9v-2.9c-0.3-0.6-0.8-0.9-1.5-0.9c-0.5,0-0.9,0.2-1.2,0.6S157,381.1,157,381.9z"/>
			<path d="M165.5,385.1c-0.9,0-1.6-0.3-2.1-0.8s-0.8-1.3-0.8-2.3v-0.2c0-0.6,0.1-1.2,0.4-1.7s0.6-0.9,1-1.2s0.9-0.4,1.4-0.4
				c0.8,0,1.5,0.3,1.9,0.8s0.7,1.3,0.7,2.3v0.5h-4.3c0,0.6,0.2,1.1,0.5,1.5s0.8,0.6,1.3,0.6c0.4,0,0.7-0.1,1-0.2s0.5-0.4,0.7-0.6
				l0.7,0.5C167.4,384.7,166.6,385.1,165.5,385.1z M165.4,379.4c-0.4,0-0.8,0.2-1.1,0.5s-0.5,0.8-0.6,1.3h3.2v-0.1
				c0-0.6-0.2-1-0.4-1.3S165.9,379.4,165.4,379.4z"/>
			<path d="M172.3,379.6c-0.2,0-0.3,0-0.5,0c-0.7,0-1.2,0.3-1.4,0.9v4.5h-1.1v-6.3h1.1l0,0.7c0.4-0.6,0.9-0.8,1.5-0.8
				c0.2,0,0.4,0,0.5,0.1V379.6z"/>
			<path d="M176.1,382.7c0-0.4,0.1-0.8,0.3-1.1s0.7-0.7,1.3-1.2c-0.4-0.5-0.6-0.8-0.8-1.1s-0.2-0.6-0.2-0.8c0-0.6,0.2-1.2,0.6-1.5
				s0.9-0.6,1.6-0.6c0.6,0,1.1,0.2,1.5,0.5s0.6,0.8,0.6,1.3c0,0.3-0.1,0.7-0.3,1s-0.5,0.6-0.9,0.9l-0.6,0.5l1.9,2.3
				c0.3-0.5,0.4-1.1,0.4-1.7h1c0,1-0.2,1.8-0.7,2.5l1.2,1.5h-1.3l-0.6-0.7c-0.3,0.3-0.6,0.5-1,0.6s-0.8,0.2-1.2,0.2
				c-0.8,0-1.5-0.2-2-0.7S176.1,383.4,176.1,382.7z M178.8,384.2c0.6,0,1.1-0.2,1.6-0.7l-2.1-2.5l-0.2,0.1c-0.7,0.5-1,1-1,1.5
				c0,0.5,0.1,0.8,0.4,1.1S178.3,384.2,178.8,384.2z M177.9,378.4c0,0.4,0.2,0.8,0.7,1.4l0.7-0.5c0.3-0.2,0.4-0.4,0.5-0.5
				s0.1-0.4,0.1-0.6c0-0.3-0.1-0.5-0.3-0.7s-0.4-0.3-0.7-0.3c-0.3,0-0.6,0.1-0.8,0.3S177.9,378.1,177.9,378.4z"/>
		</g>
		<g enable-background="new    ">
			<path d="M147.9,398.1h4v0.9h-5.2v-8.5h1.1V398.1z"/>
			<path d="M153,391c0-0.2,0.1-0.3,0.2-0.4s0.3-0.2,0.5-0.2s0.4,0.1,0.5,0.2s0.2,0.3,0.2,0.4s-0.1,0.3-0.2,0.4s-0.3,0.2-0.5,0.2
				s-0.4-0.1-0.5-0.2S153,391.2,153,391z M154.2,399h-1.1v-6.3h1.1V399z"/>
			<path d="M156.9,392.7l0,0.8c0.5-0.6,1.1-0.9,1.9-0.9c1.3,0,2,0.8,2,2.3v4.2h-1.1v-4.2c0-0.5-0.1-0.8-0.3-1s-0.5-0.3-1-0.3
				c-0.4,0-0.7,0.1-0.9,0.3s-0.5,0.4-0.6,0.7v4.5h-1.1v-6.3H156.9z"/>
			<path d="M165.2,399.1c-0.9,0-1.6-0.3-2.1-0.8s-0.8-1.3-0.8-2.3v-0.2c0-0.6,0.1-1.2,0.4-1.7s0.6-0.9,1-1.2s0.9-0.4,1.4-0.4
				c0.8,0,1.5,0.3,1.9,0.8s0.7,1.3,0.7,2.3v0.5h-4.3c0,0.6,0.2,1.1,0.5,1.5s0.8,0.6,1.3,0.6c0.4,0,0.7-0.1,1-0.2s0.5-0.4,0.7-0.6
				l0.7,0.5C167,398.7,166.2,399.1,165.2,399.1z M165,393.4c-0.4,0-0.8,0.2-1.1,0.5s-0.5,0.8-0.6,1.3h3.2v-0.1c0-0.6-0.2-1-0.4-1.3
				S165.5,393.4,165,393.4z"/>
			<path d="M172.6,397.3c0-0.3-0.1-0.5-0.3-0.7s-0.6-0.3-1.2-0.4s-1-0.3-1.3-0.4s-0.6-0.4-0.7-0.6s-0.2-0.5-0.2-0.8
				c0-0.5,0.2-1,0.7-1.3s1-0.5,1.7-0.5c0.7,0,1.3,0.2,1.7,0.6s0.7,0.8,0.7,1.4h-1.1c0-0.3-0.1-0.6-0.4-0.8s-0.6-0.3-1-0.3
				c-0.4,0-0.7,0.1-0.9,0.3s-0.3,0.4-0.3,0.7c0,0.3,0.1,0.5,0.3,0.6s0.6,0.3,1.1,0.4s1,0.3,1.3,0.4s0.6,0.4,0.7,0.6s0.2,0.5,0.2,0.9
				c0,0.6-0.2,1-0.7,1.4s-1,0.5-1.8,0.5c-0.5,0-1-0.1-1.3-0.3s-0.7-0.4-0.9-0.8s-0.3-0.7-0.3-1h1.1c0,0.4,0.2,0.7,0.4,0.9
				s0.6,0.3,1.1,0.3c0.4,0,0.7-0.1,1-0.2S172.6,397.6,172.6,397.3z"/>
		</g>
		<g enable-background="new    ">
			<path d="M72.8,174.1h4v0.9h-5.2v-8.5h1.1V174.1z"/>
			<path d="M77.9,167c0-0.2,0.1-0.3,0.2-0.4s0.3-0.2,0.5-0.2s0.4,0.1,0.5,0.2s0.2,0.3,0.2,0.4s-0.1,0.3-0.2,0.4s-0.3,0.2-0.5,0.2
				s-0.4-0.1-0.5-0.2S77.9,167.2,77.9,167z M79.1,175H78v-6.3h1.1V175z"/>
			<path d="M81.9,168.7l0,0.8c0.5-0.6,1.1-0.9,1.9-0.9c1.3,0,2,0.8,2,2.3v4.2h-1.1v-4.2c0-0.5-0.1-0.8-0.3-1s-0.5-0.3-1-0.3
				c-0.4,0-0.7,0.1-0.9,0.3s-0.5,0.4-0.6,0.7v4.5h-1.1v-6.3H81.9z"/>
			<path d="M89.2,172.1l-0.7,0.7v2.2h-1.1v-9h1.1v5.4l0.6-0.7l2-2.1h1.3l-2.5,2.6l2.8,3.7h-1.3L89.2,172.1z"/>
			<path d="M97.2,173.3c0-0.3-0.1-0.5-0.3-0.7s-0.6-0.3-1.2-0.4s-1-0.3-1.3-0.4s-0.6-0.4-0.7-0.6s-0.2-0.5-0.2-0.8
				c0-0.5,0.2-1,0.7-1.3s1-0.5,1.7-0.5c0.7,0,1.3,0.2,1.7,0.6s0.7,0.8,0.7,1.4h-1.1c0-0.3-0.1-0.6-0.4-0.8s-0.6-0.3-1-0.3
				c-0.4,0-0.7,0.1-0.9,0.3s-0.3,0.4-0.3,0.7c0,0.3,0.1,0.5,0.3,0.6s0.6,0.3,1.1,0.4s1,0.3,1.3,0.4s0.6,0.4,0.7,0.6s0.2,0.5,0.2,0.9
				c0,0.6-0.2,1-0.7,1.4s-1,0.5-1.8,0.5c-0.5,0-1-0.1-1.3-0.3s-0.7-0.4-0.9-0.8s-0.3-0.7-0.3-1h1.1c0,0.4,0.2,0.7,0.4,0.9
				s0.6,0.3,1.1,0.3c0.4,0,0.7-0.1,1-0.2S97.2,173.6,97.2,173.3z"/>
			<path d="M102.5,172.7c0-0.4,0.1-0.8,0.3-1.1s0.7-0.7,1.3-1.2c-0.4-0.5-0.6-0.8-0.8-1.1s-0.2-0.6-0.2-0.8c0-0.6,0.2-1.2,0.6-1.5
				s0.9-0.6,1.6-0.6c0.6,0,1.1,0.2,1.5,0.5s0.6,0.8,0.6,1.3c0,0.3-0.1,0.7-0.3,1s-0.5,0.6-0.9,0.9l-0.6,0.5l1.9,2.3
				c0.3-0.5,0.4-1.1,0.4-1.7h1c0,1-0.2,1.8-0.7,2.5l1.2,1.5H108l-0.6-0.7c-0.3,0.3-0.6,0.5-1,0.6s-0.8,0.2-1.2,0.2
				c-0.8,0-1.5-0.2-2-0.7S102.5,173.4,102.5,172.7z M105.2,174.2c0.6,0,1.1-0.2,1.6-0.7l-2.1-2.5l-0.2,0.1c-0.7,0.5-1,1-1,1.5
				c0,0.5,0.1,0.8,0.4,1.1S104.7,174.2,105.2,174.2z M104.3,168.4c0,0.4,0.2,0.8,0.7,1.4l0.7-0.5c0.3-0.2,0.4-0.4,0.5-0.5
				s0.1-0.4,0.1-0.6c0-0.3-0.1-0.5-0.3-0.7s-0.4-0.3-0.7-0.3c-0.3,0-0.6,0.1-0.8,0.3S104.3,168.1,104.3,168.4z"/>
		</g>
		<g enable-background="new    ">
			<path d="M71.4,185.7v3.3h-1.1v-8.5h3.1c0.9,0,1.7,0.2,2.2,0.7s0.8,1.1,0.8,1.9c0,0.8-0.3,1.5-0.8,1.9s-1.3,0.7-2.2,0.7H71.4z
				 M71.4,184.7h2c0.6,0,1.1-0.1,1.4-0.4c0.3-0.3,0.5-0.7,0.5-1.2c0-0.5-0.2-0.9-0.5-1.2c-0.3-0.3-0.8-0.5-1.3-0.5h-2.1V184.7z"/>
			<path d="M80.7,183.6c-0.2,0-0.3,0-0.5,0c-0.7,0-1.2,0.3-1.4,0.9v4.5h-1.1v-6.3h1.1l0,0.7c0.4-0.6,0.9-0.8,1.5-0.8
				c0.2,0,0.4,0,0.5,0.1V183.6z"/>
			<path d="M81.7,181c0-0.2,0.1-0.3,0.2-0.4s0.3-0.2,0.5-0.2s0.4,0.1,0.5,0.2s0.2,0.3,0.2,0.4s-0.1,0.3-0.2,0.4s-0.3,0.2-0.5,0.2
				s-0.4-0.1-0.5-0.2S81.7,181.2,81.7,181z M82.9,189h-1.1v-6.3h1.1V189z"/>
			<path d="M85.7,182.7l0,0.7c0.5-0.5,1.1-0.8,1.9-0.8c0.9,0,1.5,0.3,1.8,1c0.2-0.3,0.5-0.6,0.8-0.7s0.7-0.3,1.2-0.3
				c1.4,0,2.1,0.7,2.1,2.2v4.2h-1.1v-4.2c0-0.5-0.1-0.8-0.3-1s-0.6-0.3-1-0.3c-0.4,0-0.7,0.1-1,0.4s-0.4,0.6-0.5,1v4.2h-1.1v-4.2
				c0-0.9-0.5-1.4-1.4-1.4c-0.7,0-1.2,0.3-1.5,0.9v4.6h-1.1v-6.3H85.7z"/>
			<path d="M99.1,189c-0.1-0.1-0.1-0.3-0.2-0.7c-0.5,0.5-1.1,0.8-1.8,0.8c-0.6,0-1.1-0.2-1.5-0.5s-0.6-0.8-0.6-1.3
				c0-0.7,0.3-1.2,0.8-1.5s1.2-0.5,2.1-0.5h1.1v-0.5c0-0.4-0.1-0.7-0.3-0.9s-0.6-0.3-1-0.3c-0.4,0-0.7,0.1-1,0.3s-0.4,0.4-0.4,0.7
				h-1.1c0-0.3,0.1-0.6,0.3-0.9s0.5-0.5,0.9-0.7s0.8-0.3,1.3-0.3c0.7,0,1.3,0.2,1.7,0.5s0.6,0.9,0.6,1.5v2.9c0,0.6,0.1,1,0.2,1.4
				v0.1H99.1z M97.3,188.2c0.3,0,0.7-0.1,1-0.3s0.5-0.4,0.7-0.7v-1.3h-0.8c-1.3,0-2,0.4-2,1.2c0,0.3,0.1,0.6,0.3,0.8
				S96.9,188.2,97.3,188.2z"/>
			<path d="M104.8,183.6c-0.2,0-0.3,0-0.5,0c-0.7,0-1.2,0.3-1.4,0.9v4.5h-1.1v-6.3h1.1l0,0.7c0.4-0.6,0.9-0.8,1.5-0.8
				c0.2,0,0.4,0,0.5,0.1V183.6z"/>
			<path d="M107.9,187.4l1.5-4.8h1.2L108,190c-0.4,1.1-1,1.6-1.9,1.6l-0.2,0l-0.4-0.1v-0.9l0.3,0c0.4,0,0.7-0.1,0.9-0.2
				s0.4-0.4,0.5-0.8l0.2-0.6l-2.3-6.3h1.2L107.9,187.4z"/>
		</g>
		<g enable-background="new    ">
			<path d="M140.9,186.3l0.2,1.1l0.2-1l1.7-6h0.9l1.6,6l0.2,1l0.2-1.1l1.3-5.8h1.1l-2.1,8.5h-1l-1.8-6.2l-0.1-0.7l-0.1,0.7l-1.8,6.2
				h-1l-2.1-8.5h1.1L140.9,186.3z"/>
			<path d="M153.2,189c-0.1-0.1-0.1-0.3-0.2-0.7c-0.5,0.5-1.1,0.8-1.8,0.8c-0.6,0-1.1-0.2-1.5-0.5s-0.6-0.8-0.6-1.3
				c0-0.7,0.3-1.2,0.8-1.5s1.2-0.5,2.1-0.5h1.1v-0.5c0-0.4-0.1-0.7-0.3-0.9s-0.6-0.3-1-0.3c-0.4,0-0.7,0.1-1,0.3s-0.4,0.4-0.4,0.7
				h-1.1c0-0.3,0.1-0.6,0.3-0.9s0.5-0.5,0.9-0.7s0.8-0.3,1.3-0.3c0.7,0,1.3,0.2,1.7,0.5s0.6,0.9,0.6,1.5v2.9c0,0.6,0.1,1,0.2,1.4
				v0.1H153.2z M151.4,188.2c0.3,0,0.7-0.1,1-0.3s0.5-0.4,0.7-0.7v-1.3h-0.8c-1.3,0-2,0.4-2,1.2c0,0.3,0.1,0.6,0.3,0.8
				S151.1,188.2,151.4,188.2z"/>
			<path d="M158.9,183.6c-0.2,0-0.3,0-0.5,0c-0.7,0-1.2,0.3-1.4,0.9v4.5h-1.1v-6.3h1.1l0,0.7c0.4-0.6,0.9-0.8,1.5-0.8
				c0.2,0,0.4,0,0.5,0.1V183.6z"/>
			<path d="M160.9,182.7l0,0.8c0.5-0.6,1.1-0.9,1.9-0.9c1.3,0,2,0.8,2,2.3v4.2h-1.1v-4.2c0-0.5-0.1-0.8-0.3-1s-0.5-0.3-1-0.3
				c-0.4,0-0.7,0.1-0.9,0.3s-0.5,0.4-0.6,0.7v4.5h-1.1v-6.3H160.9z"/>
			<path d="M166.5,181c0-0.2,0.1-0.3,0.2-0.4s0.3-0.2,0.5-0.2s0.4,0.1,0.5,0.2s0.2,0.3,0.2,0.4s-0.1,0.3-0.2,0.4s-0.3,0.2-0.5,0.2
				s-0.4-0.1-0.5-0.2S166.5,181.2,166.5,181z M167.7,189h-1.1v-6.3h1.1V189z"/>
			<path d="M170.5,182.7l0,0.8c0.5-0.6,1.1-0.9,1.9-0.9c1.3,0,2,0.8,2,2.3v4.2h-1.1v-4.2c0-0.5-0.1-0.8-0.3-1s-0.5-0.3-1-0.3
				c-0.4,0-0.7,0.1-0.9,0.3s-0.5,0.4-0.6,0.7v4.5h-1.1v-6.3H170.5z"/>
			<path d="M175.8,185.8c0-1,0.2-1.8,0.7-2.4s1.1-0.9,1.8-0.9c0.8,0,1.4,0.3,1.8,0.8l0.1-0.7h1v6.2c0,0.8-0.2,1.5-0.7,1.9
				s-1.1,0.7-2,0.7c-0.5,0-0.9-0.1-1.3-0.3s-0.8-0.5-1-0.8l0.6-0.7c0.5,0.6,1,0.9,1.7,0.9c0.5,0,0.9-0.1,1.2-0.4s0.4-0.7,0.4-1.3
				v-0.5c-0.4,0.5-1,0.8-1.8,0.8c-0.7,0-1.3-0.3-1.8-0.9S175.8,186.8,175.8,185.8z M176.9,185.9c0,0.7,0.1,1.3,0.4,1.7
				s0.7,0.6,1.2,0.6c0.7,0,1.2-0.3,1.5-0.9v-2.9c-0.3-0.6-0.8-0.9-1.5-0.9c-0.5,0-0.9,0.2-1.2,0.6S176.9,185.1,176.9,185.9z"/>
		</g>
		<g enable-background="new    ">
			<path d="M211.9,189v-8.5h2.4c0.7,0,1.4,0.2,2,0.5s1,0.8,1.3,1.4s0.5,1.3,0.5,2.1v0.5c0,0.8-0.2,1.5-0.5,2.1s-0.8,1.1-1.3,1.4
				s-1.2,0.5-2,0.5H211.9z M213,181.4v6.7h1.2c0.9,0,1.5-0.3,2-0.8c0.5-0.5,0.7-1.3,0.7-2.3v-0.5c0-1-0.2-1.7-0.7-2.3
				c-0.5-0.5-1.1-0.8-1.9-0.8H213z"/>
			<path d="M223.5,189c-0.1-0.1-0.1-0.3-0.2-0.7c-0.5,0.5-1.1,0.8-1.8,0.8c-0.6,0-1.1-0.2-1.5-0.5s-0.6-0.8-0.6-1.3
				c0-0.7,0.3-1.2,0.8-1.5s1.2-0.5,2.1-0.5h1.1v-0.5c0-0.4-0.1-0.7-0.3-0.9s-0.6-0.3-1-0.3c-0.4,0-0.7,0.1-1,0.3s-0.4,0.4-0.4,0.7
				h-1.1c0-0.3,0.1-0.6,0.3-0.9s0.5-0.5,0.9-0.7s0.8-0.3,1.3-0.3c0.7,0,1.3,0.2,1.7,0.5s0.6,0.9,0.6,1.5v2.9c0,0.6,0.1,1,0.2,1.4
				v0.1H223.5z M221.7,188.2c0.3,0,0.7-0.1,1-0.3s0.5-0.4,0.7-0.7v-1.3h-0.8c-1.3,0-2,0.4-2,1.2c0,0.3,0.1,0.6,0.3,0.8
				S221.4,188.2,221.7,188.2z"/>
			<path d="M227.2,182.7l0,0.8c0.5-0.6,1.1-0.9,1.9-0.9c1.3,0,2,0.8,2,2.3v4.2H230v-4.2c0-0.5-0.1-0.8-0.3-1s-0.5-0.3-1-0.3
				c-0.4,0-0.7,0.1-0.9,0.3s-0.5,0.4-0.6,0.7v4.5h-1.1v-6.3H227.2z"/>
			<path d="M232.5,185.8c0-1,0.2-1.8,0.7-2.4s1.1-0.9,1.8-0.9c0.8,0,1.4,0.3,1.8,0.8l0.1-0.7h1v6.2c0,0.8-0.2,1.5-0.7,1.9
				s-1.1,0.7-2,0.7c-0.5,0-0.9-0.1-1.3-0.3s-0.8-0.5-1-0.8l0.6-0.7c0.5,0.6,1,0.9,1.7,0.9c0.5,0,0.9-0.1,1.2-0.4s0.4-0.7,0.4-1.3
				v-0.5c-0.4,0.5-1,0.8-1.8,0.8c-0.7,0-1.3-0.3-1.8-0.9S232.5,186.8,232.5,185.8z M233.6,185.9c0,0.7,0.1,1.3,0.4,1.7
				s0.7,0.6,1.2,0.6c0.7,0,1.2-0.3,1.5-0.9v-2.9c-0.3-0.6-0.8-0.9-1.5-0.9c-0.5,0-0.9,0.2-1.2,0.6S233.6,185.1,233.6,185.9z"/>
			<path d="M242.1,189.1c-0.9,0-1.6-0.3-2.1-0.8s-0.8-1.3-0.8-2.3v-0.2c0-0.6,0.1-1.2,0.4-1.7s0.6-0.9,1-1.2s0.9-0.4,1.4-0.4
				c0.8,0,1.5,0.3,1.9,0.8s0.7,1.3,0.7,2.3v0.5h-4.3c0,0.6,0.2,1.1,0.5,1.5s0.8,0.6,1.3,0.6c0.4,0,0.7-0.1,1-0.2s0.5-0.4,0.7-0.6
				l0.7,0.5C244,188.7,243.2,189.1,242.1,189.1z M242,183.4c-0.4,0-0.8,0.2-1.1,0.5s-0.5,0.8-0.6,1.3h3.2v-0.1c0-0.6-0.2-1-0.4-1.3
				S242.4,183.4,242,183.4z"/>
			<path d="M248.9,183.6c-0.2,0-0.3,0-0.5,0c-0.7,0-1.2,0.3-1.4,0.9v4.5h-1.1v-6.3h1.1l0,0.7c0.4-0.6,0.9-0.8,1.5-0.8
				c0.2,0,0.4,0,0.5,0.1V183.6z"/>
		</g>
		<g enable-background="new    ">
			<path d="M281,185.2c-1-0.3-1.7-0.6-2.1-1s-0.7-0.9-0.7-1.5c0-0.7,0.3-1.2,0.8-1.7s1.2-0.7,2.1-0.7c0.6,0,1.1,0.1,1.6,0.3
				s0.8,0.5,1.1,0.9s0.4,0.8,0.4,1.3H283c0-0.5-0.2-0.9-0.5-1.2s-0.8-0.4-1.4-0.4c-0.6,0-1,0.1-1.3,0.4c-0.3,0.2-0.5,0.6-0.5,1
				c0,0.3,0.1,0.6,0.4,0.9c0.3,0.2,0.8,0.5,1.5,0.7c0.7,0.2,1.3,0.4,1.7,0.7s0.7,0.5,0.9,0.8s0.3,0.7,0.3,1.1c0,0.7-0.3,1.2-0.8,1.7
				s-1.3,0.6-2.2,0.6c-0.6,0-1.1-0.1-1.6-0.3s-0.9-0.5-1.2-0.9s-0.4-0.8-0.4-1.3h1.1c0,0.5,0.2,0.9,0.6,1.2s0.9,0.4,1.5,0.4
				c0.6,0,1-0.1,1.4-0.4s0.5-0.6,0.5-1s-0.1-0.7-0.4-1S281.8,185.4,281,185.2z"/>
			<path d="M289.3,188.4c-0.4,0.5-1,0.7-1.9,0.7c-0.7,0-1.2-0.2-1.5-0.6s-0.5-1-0.5-1.7v-4.1h1.1v4.1c0,1,0.4,1.4,1.2,1.4
				c0.8,0,1.4-0.3,1.7-0.9v-4.6h1.1v6.3h-1L289.3,188.4z"/>
			<path d="M294.6,188.2c0.4,0,0.7-0.1,1-0.4s0.4-0.5,0.5-0.9h1c0,0.4-0.1,0.7-0.4,1s-0.5,0.6-0.9,0.8s-0.8,0.3-1.2,0.3
				c-0.9,0-1.5-0.3-2.1-0.9s-0.8-1.4-0.8-2.4v-0.2c0-0.6,0.1-1.2,0.3-1.6s0.6-0.9,1-1.1s0.9-0.4,1.5-0.4c0.7,0,1.3,0.2,1.8,0.6
				s0.7,1,0.8,1.7h-1c0-0.4-0.2-0.7-0.5-1s-0.6-0.4-1-0.4c-0.6,0-1,0.2-1.3,0.6s-0.5,1-0.5,1.7v0.2c0,0.7,0.2,1.3,0.5,1.7
				S294,188.2,294.6,188.2z"/>
			<path d="M300.9,188.2c0.4,0,0.7-0.1,1-0.4s0.4-0.5,0.5-0.9h1c0,0.4-0.1,0.7-0.4,1s-0.5,0.6-0.9,0.8s-0.8,0.3-1.2,0.3
				c-0.9,0-1.5-0.3-2.1-0.9s-0.8-1.4-0.8-2.4v-0.2c0-0.6,0.1-1.2,0.3-1.6s0.6-0.9,1-1.1s0.9-0.4,1.5-0.4c0.7,0,1.3,0.2,1.8,0.6
				s0.7,1,0.8,1.7h-1c0-0.4-0.2-0.7-0.5-1s-0.6-0.4-1-0.4c-0.6,0-1,0.2-1.3,0.6s-0.5,1-0.5,1.7v0.2c0,0.7,0.2,1.3,0.5,1.7
				S300.3,188.2,300.9,188.2z"/>
			<path d="M307.2,189.1c-0.9,0-1.6-0.3-2.1-0.8s-0.8-1.3-0.8-2.3v-0.2c0-0.6,0.1-1.2,0.4-1.7s0.6-0.9,1-1.2s0.9-0.4,1.4-0.4
				c0.8,0,1.5,0.3,1.9,0.8s0.7,1.3,0.7,2.3v0.5h-4.3c0,0.6,0.2,1.1,0.5,1.5s0.8,0.6,1.3,0.6c0.4,0,0.7-0.1,1-0.2s0.5-0.4,0.7-0.6
				l0.7,0.5C309.1,188.7,308.3,189.1,307.2,189.1z M307.1,183.4c-0.4,0-0.8,0.2-1.1,0.5s-0.5,0.8-0.6,1.3h3.2v-0.1
				c0-0.6-0.2-1-0.4-1.3S307.6,183.4,307.1,183.4z"/>
			<path d="M314.7,187.3c0-0.3-0.1-0.5-0.3-0.7s-0.6-0.3-1.2-0.4s-1-0.3-1.3-0.4s-0.6-0.4-0.7-0.6s-0.2-0.5-0.2-0.8
				c0-0.5,0.2-1,0.7-1.3s1-0.5,1.7-0.5c0.7,0,1.3,0.2,1.7,0.6s0.7,0.8,0.7,1.4h-1.1c0-0.3-0.1-0.6-0.4-0.8s-0.6-0.3-1-0.3
				c-0.4,0-0.7,0.1-0.9,0.3s-0.3,0.4-0.3,0.7c0,0.3,0.1,0.5,0.3,0.6s0.6,0.3,1.1,0.4s1,0.3,1.3,0.4s0.6,0.4,0.7,0.6s0.2,0.5,0.2,0.9
				c0,0.6-0.2,1-0.7,1.4s-1,0.5-1.8,0.5c-0.5,0-1-0.1-1.3-0.3s-0.7-0.4-0.9-0.8s-0.3-0.7-0.3-1h1.1c0,0.4,0.2,0.7,0.4,0.9
				s0.6,0.3,1.1,0.3c0.4,0,0.7-0.1,1-0.2S314.7,187.6,314.7,187.3z"/>
			<path d="M320.8,187.3c0-0.3-0.1-0.5-0.3-0.7s-0.6-0.3-1.2-0.4s-1-0.3-1.3-0.4s-0.6-0.4-0.7-0.6s-0.2-0.5-0.2-0.8
				c0-0.5,0.2-1,0.7-1.3s1-0.5,1.7-0.5c0.7,0,1.3,0.2,1.7,0.6s0.7,0.8,0.7,1.4h-1.1c0-0.3-0.1-0.6-0.4-0.8s-0.6-0.3-1-0.3
				c-0.4,0-0.7,0.1-0.9,0.3s-0.3,0.4-0.3,0.7c0,0.3,0.1,0.5,0.3,0.6s0.6,0.3,1.1,0.4s1,0.3,1.3,0.4s0.6,0.4,0.7,0.6s0.2,0.5,0.2,0.9
				c0,0.6-0.2,1-0.7,1.4s-1,0.5-1.8,0.5c-0.5,0-1-0.1-1.3-0.3s-0.7-0.4-0.9-0.8s-0.3-0.7-0.3-1h1.1c0,0.4,0.2,0.7,0.4,0.9
				s0.6,0.3,1.1,0.3c0.4,0,0.7-0.1,1-0.2S320.8,187.6,320.8,187.3z"/>
		</g>
		<g enable-background="new    ">
			<path d="M423.4,385v-8.5h2.8c0.9,0,1.6,0.2,2.1,0.6s0.7,0.9,0.7,1.7c0,0.4-0.1,0.8-0.3,1.1s-0.5,0.5-0.9,0.7
				c0.5,0.1,0.8,0.4,1.1,0.7s0.4,0.8,0.4,1.3c0,0.8-0.2,1.4-0.7,1.8s-1.2,0.7-2.1,0.7H423.4z M424.5,380.1h1.7
				c0.5,0,0.9-0.1,1.2-0.4c0.3-0.2,0.4-0.6,0.4-1c0-0.5-0.1-0.8-0.4-1c-0.3-0.2-0.7-0.3-1.2-0.3h-1.7V380.1z M424.5,381v3.1h1.9
				c0.5,0,0.9-0.1,1.2-0.4s0.5-0.6,0.5-1.1c0-1-0.6-1.5-1.7-1.5H424.5z"/>
			<path d="M434.6,384.4c-0.4,0.5-1,0.7-1.9,0.7c-0.7,0-1.2-0.2-1.5-0.6s-0.5-1-0.5-1.7v-4.1h1.1v4.1c0,1,0.4,1.4,1.2,1.4
				c0.8,0,1.4-0.3,1.7-0.9v-4.6h1.1v6.3h-1L434.6,384.4z"/>
			<path d="M438.7,377.1v1.5h1.2v0.8h-1.2v3.9c0,0.3,0.1,0.4,0.2,0.6s0.3,0.2,0.5,0.2c0.1,0,0.3,0,0.5-0.1v0.9
				c-0.3,0.1-0.6,0.1-0.8,0.1c-0.5,0-0.8-0.1-1.1-0.4s-0.4-0.7-0.4-1.2v-3.9h-1.2v-0.8h1.2v-1.5H438.7z"/>
			<path d="M442.7,377.1v1.5h1.2v0.8h-1.2v3.9c0,0.3,0.1,0.4,0.2,0.6s0.3,0.2,0.5,0.2c0.1,0,0.3,0,0.5-0.1v0.9
				c-0.3,0.1-0.6,0.1-0.8,0.1c-0.5,0-0.8-0.1-1.1-0.4s-0.4-0.7-0.4-1.2v-3.9h-1.2v-0.8h1.2v-1.5H442.7z"/>
			<path d="M444.7,381.8c0-0.6,0.1-1.2,0.4-1.7s0.6-0.9,1-1.1s0.9-0.4,1.5-0.4c0.9,0,1.6,0.3,2.1,0.9s0.8,1.4,0.8,2.4v0.1
				c0,0.6-0.1,1.2-0.4,1.7s-0.6,0.9-1,1.1s-0.9,0.4-1.5,0.4c-0.9,0-1.6-0.3-2.1-0.9S444.7,382.8,444.7,381.8L444.7,381.8z
				 M445.8,381.9c0,0.7,0.2,1.3,0.5,1.7s0.8,0.6,1.3,0.6c0.6,0,1-0.2,1.3-0.6s0.5-1,0.5-1.8c0-0.7-0.2-1.3-0.5-1.7s-0.8-0.6-1.3-0.6
				c-0.5,0-1,0.2-1.3,0.6S445.8,381.1,445.8,381.9z"/>
			<path d="M452.9,378.7l0,0.8c0.5-0.6,1.1-0.9,1.9-0.9c1.3,0,2,0.8,2,2.3v4.2h-1.1v-4.2c0-0.5-0.1-0.8-0.3-1s-0.5-0.3-1-0.3
				c-0.4,0-0.7,0.1-0.9,0.3s-0.5,0.4-0.6,0.7v4.5h-1.1v-6.3H452.9z"/>
		</g>
		<g enable-background="new    ">
			<path d="M409.1,399v-8.5h2.8c0.9,0,1.6,0.2,2.1,0.6s0.7,0.9,0.7,1.7c0,0.4-0.1,0.8-0.3,1.1s-0.5,0.5-0.9,0.7
				c0.5,0.1,0.8,0.4,1.1,0.7s0.4,0.8,0.4,1.3c0,0.8-0.2,1.4-0.7,1.8s-1.2,0.7-2.1,0.7H409.1z M410.2,394.1h1.7
				c0.5,0,0.9-0.1,1.2-0.4c0.3-0.2,0.4-0.6,0.4-1c0-0.5-0.1-0.8-0.4-1c-0.3-0.2-0.7-0.3-1.2-0.3h-1.7V394.1z M410.2,395v3.1h1.9
				c0.5,0,0.9-0.1,1.2-0.4s0.5-0.6,0.5-1.1c0-1-0.6-1.5-1.7-1.5H410.2z"/>
			<path d="M420.3,399c-0.1-0.1-0.1-0.3-0.2-0.7c-0.5,0.5-1.1,0.8-1.8,0.8c-0.6,0-1.1-0.2-1.5-0.5s-0.6-0.8-0.6-1.3
				c0-0.7,0.3-1.2,0.8-1.5s1.2-0.5,2.1-0.5h1.1v-0.5c0-0.4-0.1-0.7-0.3-0.9s-0.6-0.3-1-0.3c-0.4,0-0.7,0.1-1,0.3s-0.4,0.4-0.4,0.7
				h-1.1c0-0.3,0.1-0.6,0.3-0.9s0.5-0.5,0.9-0.7s0.8-0.3,1.3-0.3c0.7,0,1.3,0.2,1.7,0.5s0.6,0.9,0.6,1.5v2.9c0,0.6,0.1,1,0.2,1.4
				v0.1H420.3z M418.5,398.2c0.3,0,0.7-0.1,1-0.3s0.5-0.4,0.7-0.7v-1.3h-0.8c-1.3,0-2,0.4-2,1.2c0,0.3,0.1,0.6,0.3,0.8
				S418.2,398.2,418.5,398.2z"/>
			<path d="M425.5,398.2c0.4,0,0.7-0.1,1-0.4s0.4-0.5,0.5-0.9h1c0,0.4-0.1,0.7-0.4,1s-0.5,0.6-0.9,0.8s-0.8,0.3-1.2,0.3
				c-0.9,0-1.5-0.3-2.1-0.9s-0.8-1.4-0.8-2.4v-0.2c0-0.6,0.1-1.2,0.3-1.6s0.6-0.9,1-1.1s0.9-0.4,1.5-0.4c0.7,0,1.3,0.2,1.8,0.6
				s0.7,1,0.8,1.7h-1c0-0.4-0.2-0.7-0.5-1s-0.6-0.4-1-0.4c-0.6,0-1,0.2-1.3,0.6s-0.5,1-0.5,1.7v0.2c0,0.7,0.2,1.3,0.5,1.7
				S424.9,398.2,425.5,398.2z"/>
			<path d="M431,396.1l-0.7,0.7v2.2h-1.1v-9h1.1v5.4l0.6-0.7l2-2.1h1.3l-2.5,2.6l2.8,3.7h-1.3L431,396.1z"/>
			<path d="M434.9,395.8c0-1,0.2-1.8,0.7-2.4s1.1-0.9,1.8-0.9c0.8,0,1.4,0.3,1.8,0.8l0.1-0.7h1v6.2c0,0.8-0.2,1.5-0.7,1.9
				s-1.1,0.7-2,0.7c-0.5,0-0.9-0.1-1.3-0.3s-0.8-0.5-1-0.8l0.6-0.7c0.5,0.6,1,0.9,1.7,0.9c0.5,0,0.9-0.1,1.2-0.4s0.4-0.7,0.4-1.3
				v-0.5c-0.4,0.5-1,0.8-1.8,0.8c-0.7,0-1.3-0.3-1.8-0.9S434.9,396.8,434.9,395.8z M436,395.9c0,0.7,0.1,1.3,0.4,1.7
				s0.7,0.6,1.2,0.6c0.7,0,1.2-0.3,1.5-0.9v-2.9c-0.3-0.6-0.8-0.9-1.5-0.9c-0.5,0-0.9,0.2-1.2,0.6S436,395.1,436,395.9z"/>
			<path d="M445,393.6c-0.2,0-0.3,0-0.5,0c-0.7,0-1.2,0.3-1.4,0.9v4.5h-1.1v-6.3h1.1l0,0.7c0.4-0.6,0.9-0.8,1.5-0.8
				c0.2,0,0.4,0,0.5,0.1V393.6z"/>
			<path d="M445.6,395.8c0-0.6,0.1-1.2,0.4-1.7s0.6-0.9,1-1.1s0.9-0.4,1.5-0.4c0.9,0,1.6,0.3,2.1,0.9s0.8,1.4,0.8,2.4v0.1
				c0,0.6-0.1,1.2-0.4,1.7s-0.6,0.9-1,1.1s-0.9,0.4-1.5,0.4c-0.9,0-1.6-0.3-2.1-0.9S445.6,396.8,445.6,395.8L445.6,395.8z
				 M446.7,395.9c0,0.7,0.2,1.3,0.5,1.7s0.8,0.6,1.3,0.6c0.6,0,1-0.2,1.3-0.6s0.5-1,0.5-1.8c0-0.7-0.2-1.3-0.5-1.7s-0.8-0.6-1.3-0.6
				c-0.5,0-1,0.2-1.3,0.6S446.7,395.1,446.7,395.9z"/>
			<path d="M456.6,398.4c-0.4,0.5-1,0.7-1.9,0.7c-0.7,0-1.2-0.2-1.5-0.6s-0.5-1-0.5-1.7v-4.1h1.1v4.1c0,1,0.4,1.4,1.2,1.4
				c0.8,0,1.4-0.3,1.7-0.9v-4.6h1.1v6.3h-1L456.6,398.4z"/>
			<path d="M460.3,392.7l0,0.8c0.5-0.6,1.1-0.9,1.9-0.9c1.3,0,2,0.8,2,2.3v4.2h-1.1v-4.2c0-0.5-0.1-0.8-0.3-1s-0.5-0.3-1-0.3
				c-0.4,0-0.7,0.1-0.9,0.3s-0.5,0.4-0.6,0.7v4.5h-1.1v-6.3H460.3z"/>
			<path d="M465.7,395.8c0-1,0.2-1.8,0.7-2.3s1.1-0.9,1.8-0.9c0.7,0,1.3,0.3,1.8,0.8V390h1.1v9h-1l-0.1-0.7c-0.4,0.5-1,0.8-1.8,0.8
				c-0.7,0-1.3-0.3-1.8-0.9S465.7,396.8,465.7,395.8L465.7,395.8z M466.8,395.9c0,0.7,0.1,1.3,0.4,1.7s0.7,0.6,1.2,0.6
				c0.7,0,1.2-0.3,1.5-0.9v-2.9c-0.3-0.6-0.8-0.9-1.5-0.9c-0.5,0-0.9,0.2-1.2,0.6S466.8,395.1,466.8,395.9z"/>
		</g>
		<g enable-background="new    ">
			<path fill="#8696A5" d="M73.4,749h-1.1l-4.3-6.6v6.6h-1.1v-8.5H68l4.3,6.6v-6.6h1.1V749z"/>
			<path fill="#8696A5" d="M75,745.8c0-0.6,0.1-1.2,0.4-1.7s0.6-0.9,1-1.1s0.9-0.4,1.5-0.4c0.9,0,1.6,0.3,2.1,0.9s0.8,1.4,0.8,2.4
				v0.1c0,0.6-0.1,1.2-0.4,1.7s-0.6,0.9-1,1.1s-0.9,0.4-1.5,0.4c-0.9,0-1.6-0.3-2.1-0.9S75,746.8,75,745.8L75,745.8z M76.1,745.9
				c0,0.7,0.2,1.3,0.5,1.7s0.8,0.6,1.3,0.6c0.6,0,1-0.2,1.3-0.6s0.5-1,0.5-1.8c0-0.7-0.2-1.3-0.5-1.7s-0.8-0.6-1.3-0.6
				c-0.5,0-1,0.2-1.3,0.6S76.1,745.1,76.1,745.9z"/>
			<path fill="#8696A5" d="M83.6,741.1v1.5h1.2v0.8h-1.2v3.9c0,0.3,0.1,0.4,0.2,0.6s0.3,0.2,0.5,0.2c0.1,0,0.3,0,0.5-0.1v0.9
				c-0.3,0.1-0.6,0.1-0.8,0.1c-0.5,0-0.8-0.1-1.1-0.4s-0.4-0.7-0.4-1.2v-3.9h-1.2v-0.8h1.2v-1.5H83.6z"/>
			<path fill="#8696A5" d="M92.9,748.4c-0.4,0.5-1,0.7-1.9,0.7c-0.7,0-1.2-0.2-1.5-0.6s-0.5-1-0.5-1.7v-4.1h1.1v4.1
				c0,1,0.4,1.4,1.2,1.4c0.8,0,1.4-0.3,1.7-0.9v-4.6H94v6.3h-1L92.9,748.4z"/>
			<path fill="#8696A5" d="M99.3,747.3c0-0.3-0.1-0.5-0.3-0.7s-0.6-0.3-1.2-0.4s-1-0.3-1.3-0.4s-0.6-0.4-0.7-0.6s-0.2-0.5-0.2-0.8
				c0-0.5,0.2-1,0.7-1.3s1-0.5,1.7-0.5c0.7,0,1.3,0.2,1.7,0.6s0.7,0.8,0.7,1.4h-1.1c0-0.3-0.1-0.6-0.4-0.8s-0.6-0.3-1-0.3
				c-0.4,0-0.7,0.1-0.9,0.3s-0.3,0.4-0.3,0.7c0,0.3,0.1,0.5,0.3,0.6s0.6,0.3,1.1,0.4s1,0.3,1.3,0.4s0.6,0.4,0.7,0.6s0.2,0.5,0.2,0.9
				c0,0.6-0.2,1-0.7,1.4s-1,0.5-1.8,0.5c-0.5,0-1-0.1-1.3-0.3s-0.7-0.4-0.9-0.8s-0.3-0.7-0.3-1h1.1c0,0.4,0.2,0.7,0.4,0.9
				s0.6,0.3,1.1,0.3c0.4,0,0.7-0.1,1-0.2S99.3,747.6,99.3,747.3z"/>
			<path fill="#8696A5" d="M104.4,749.1c-0.9,0-1.6-0.3-2.1-0.8s-0.8-1.3-0.8-2.3v-0.2c0-0.6,0.1-1.2,0.4-1.7s0.6-0.9,1-1.2
				s0.9-0.4,1.4-0.4c0.8,0,1.5,0.3,1.9,0.8s0.7,1.3,0.7,2.3v0.5h-4.3c0,0.6,0.2,1.1,0.5,1.5s0.8,0.6,1.3,0.6c0.4,0,0.7-0.1,1-0.2
				s0.5-0.4,0.7-0.6l0.7,0.5C106.3,748.7,105.5,749.1,104.4,749.1z M104.3,743.4c-0.4,0-0.8,0.2-1.1,0.5s-0.5,0.8-0.6,1.3h3.2v-0.1
				c0-0.6-0.2-1-0.4-1.3S104.8,743.4,104.3,743.4z"/>
			<path fill="#8696A5" d="M107.9,745.8c0-1,0.2-1.8,0.7-2.3s1.1-0.9,1.8-0.9c0.7,0,1.3,0.3,1.8,0.8V740h1.1v9h-1l-0.1-0.7
				c-0.4,0.5-1,0.8-1.8,0.8c-0.7,0-1.3-0.3-1.8-0.9S107.9,746.8,107.9,745.8L107.9,745.8z M109,745.9c0,0.7,0.1,1.3,0.4,1.7
				s0.7,0.6,1.2,0.6c0.7,0,1.2-0.3,1.5-0.9v-2.9c-0.3-0.6-0.8-0.9-1.5-0.9c-0.5,0-0.9,0.2-1.2,0.6S109,745.1,109,745.9z"/>
		</g>
		<g enable-background="new    ">
			<path fill="#DF4534" d="M220.1,443.1h-3.7v3h4.3v0.9h-5.4v-8.5h5.4v0.9h-4.2v2.7h3.7V443.1z"/>
			<path fill="#DF4534" d="M222.3,447v-5.5h-1v-0.8h1V440c0-0.7,0.2-1.2,0.5-1.6s0.9-0.6,1.5-0.6c0.3,0,0.5,0,0.7,0.1l-0.1,0.9
				c-0.2,0-0.4-0.1-0.6-0.1c-0.4,0-0.6,0.1-0.8,0.3s-0.3,0.5-0.3,0.9v0.7h1.4v0.8h-1.4v5.5H222.3z"/>
			<path fill="#DF4534" d="M226.5,447v-5.5h-1v-0.8h1V440c0-0.7,0.2-1.2,0.5-1.6s0.9-0.6,1.5-0.6c0.3,0,0.5,0,0.7,0.1l-0.1,0.9
				c-0.2,0-0.4-0.1-0.6-0.1c-0.4,0-0.6,0.1-0.8,0.3s-0.3,0.5-0.3,0.9v0.7h1.4v0.8h-1.4v5.5H226.5z"/>
			<path fill="#DF4534" d="M232.6,447.1c-0.9,0-1.6-0.3-2.1-0.8s-0.8-1.3-0.8-2.3v-0.2c0-0.6,0.1-1.2,0.4-1.7s0.6-0.9,1-1.2
				s0.9-0.4,1.4-0.4c0.8,0,1.5,0.3,1.9,0.8s0.7,1.3,0.7,2.3v0.5h-4.3c0,0.6,0.2,1.1,0.5,1.5s0.8,0.6,1.3,0.6c0.4,0,0.7-0.1,1-0.2
				s0.5-0.4,0.7-0.6l0.7,0.5C234.5,446.7,233.7,447.1,232.6,447.1z M232.5,441.4c-0.4,0-0.8,0.2-1.1,0.5s-0.5,0.8-0.6,1.3h3.2v-0.1
				c0-0.6-0.2-1-0.4-1.3S232.9,441.4,232.5,441.4z"/>
			<path fill="#DF4534" d="M238.9,446.2c0.4,0,0.7-0.1,1-0.4s0.4-0.5,0.5-0.9h1c0,0.4-0.1,0.7-0.4,1s-0.5,0.6-0.9,0.8
				s-0.8,0.3-1.2,0.3c-0.9,0-1.5-0.3-2.1-0.9s-0.8-1.4-0.8-2.4v-0.2c0-0.6,0.1-1.2,0.3-1.6s0.6-0.9,1-1.1s0.9-0.4,1.5-0.4
				c0.7,0,1.3,0.2,1.8,0.6s0.7,1,0.8,1.7h-1c0-0.4-0.2-0.7-0.5-1s-0.6-0.4-1-0.4c-0.6,0-1,0.2-1.3,0.6s-0.5,1-0.5,1.7v0.2
				c0,0.7,0.2,1.3,0.5,1.7S238.3,446.2,238.9,446.2z"/>
			<path fill="#DF4534" d="M244.1,439.1v1.5h1.2v0.8h-1.2v3.9c0,0.3,0.1,0.4,0.2,0.6s0.3,0.2,0.5,0.2c0.1,0,0.3,0,0.5-0.1v0.9
				c-0.3,0.1-0.6,0.1-0.8,0.1c-0.5,0-0.8-0.1-1.1-0.4s-0.4-0.7-0.4-1.2v-3.9h-1.2v-0.8h1.2v-1.5H244.1z"/>
		</g>
		<g enable-background="new    ">
			<path fill="#DF4534" d="M360.1,443.1h-3.7v3h4.3v0.9h-5.4v-8.5h5.4v0.9h-4.2v2.7h3.7V443.1z"/>
			<path fill="#DF4534" d="M362.3,447v-5.5h-1v-0.8h1V440c0-0.7,0.2-1.2,0.5-1.6s0.9-0.6,1.5-0.6c0.3,0,0.5,0,0.7,0.1l-0.1,0.9
				c-0.2,0-0.4-0.1-0.6-0.1c-0.4,0-0.6,0.1-0.8,0.3s-0.3,0.5-0.3,0.9v0.7h1.4v0.8h-1.4v5.5H362.3z"/>
			<path fill="#DF4534" d="M366.5,447v-5.5h-1v-0.8h1V440c0-0.7,0.2-1.2,0.5-1.6s0.9-0.6,1.5-0.6c0.3,0,0.5,0,0.7,0.1l-0.1,0.9
				c-0.2,0-0.4-0.1-0.6-0.1c-0.4,0-0.6,0.1-0.8,0.3s-0.3,0.5-0.3,0.9v0.7h1.4v0.8h-1.4v5.5H366.5z"/>
			<path fill="#DF4534" d="M372.6,447.1c-0.9,0-1.6-0.3-2.1-0.8s-0.8-1.3-0.8-2.3v-0.2c0-0.6,0.1-1.2,0.4-1.7s0.6-0.9,1-1.2
				s0.9-0.4,1.4-0.4c0.8,0,1.5,0.3,1.9,0.8s0.7,1.3,0.7,2.3v0.5h-4.3c0,0.6,0.2,1.1,0.5,1.5s0.8,0.6,1.3,0.6c0.4,0,0.7-0.1,1-0.2
				s0.5-0.4,0.7-0.6l0.7,0.5C374.5,446.7,373.7,447.1,372.6,447.1z M372.5,441.4c-0.4,0-0.8,0.2-1.1,0.5s-0.5,0.8-0.6,1.3h3.2v-0.1
				c0-0.6-0.2-1-0.4-1.3S372.9,441.4,372.5,441.4z"/>
			<path fill="#DF4534" d="M378.9,446.2c0.4,0,0.7-0.1,1-0.4s0.4-0.5,0.5-0.9h1c0,0.4-0.1,0.7-0.4,1s-0.5,0.6-0.9,0.8
				s-0.8,0.3-1.2,0.3c-0.9,0-1.5-0.3-2.1-0.9s-0.8-1.4-0.8-2.4v-0.2c0-0.6,0.1-1.2,0.3-1.6s0.6-0.9,1-1.1s0.9-0.4,1.5-0.4
				c0.7,0,1.3,0.2,1.8,0.6s0.7,1,0.8,1.7h-1c0-0.4-0.2-0.7-0.5-1s-0.6-0.4-1-0.4c-0.6,0-1,0.2-1.3,0.6s-0.5,1-0.5,1.7v0.2
				c0,0.7,0.2,1.3,0.5,1.7S378.3,446.2,378.9,446.2z"/>
			<path fill="#DF4534" d="M384.1,439.1v1.5h1.2v0.8h-1.2v3.9c0,0.3,0.1,0.4,0.2,0.6s0.3,0.2,0.5,0.2c0.1,0,0.3,0,0.5-0.1v0.9
				c-0.3,0.1-0.6,0.1-0.8,0.1c-0.5,0-0.8-0.1-1.1-0.4s-0.4-0.7-0.4-1.2v-3.9h-1.2v-0.8h1.2v-1.5H384.1z"/>
		</g>
		<g enable-background="new    ">
			<path d="M71.5,126.3h-4.6V139H65v-12.7h-4.6v-1.5h11V126.3z"/>
			<path d="M75.1,129.7c0.8-1,1.8-1.5,3.1-1.5c2.2,0,3.4,1.3,3.4,3.8v7h-1.8v-7c0-0.8-0.2-1.3-0.5-1.7s-0.9-0.5-1.6-0.5
				c-0.6,0-1.1,0.2-1.5,0.5s-0.8,0.7-1,1.2v7.5h-1.8v-15h1.8V129.7z"/>
			<path d="M88.7,139.2c-1.4,0-2.6-0.5-3.5-1.4s-1.3-2.2-1.3-3.8v-0.3c0-1,0.2-2,0.6-2.8s1-1.5,1.7-1.9s1.5-0.7,2.3-0.7
				c1.4,0,2.4,0.5,3.2,1.4s1.1,2.2,1.1,3.9v0.8h-7.2c0,1,0.3,1.9,0.9,2.5s1.3,1,2.2,1c0.6,0,1.2-0.1,1.6-0.4s0.8-0.6,1.2-1l1.1,0.9
				C91.8,138.5,90.5,139.2,88.7,139.2z M88.5,129.7c-0.7,0-1.3,0.3-1.8,0.8s-0.8,1.3-0.9,2.2H91v-0.1c-0.1-0.9-0.3-1.6-0.7-2.1
				S89.2,129.7,88.5,129.7z"/>
			<path d="M96.6,128.4l0,1.2c0.8-0.9,1.8-1.4,3.1-1.4c1.5,0,2.5,0.6,3,1.7c0.4-0.5,0.8-0.9,1.4-1.2s1.2-0.5,2-0.5
				c2.3,0,3.5,1.2,3.5,3.7v7.1h-1.8v-7c0-0.8-0.2-1.3-0.5-1.7s-0.9-0.6-1.7-0.6c-0.7,0-1.2,0.2-1.7,0.6s-0.7,0.9-0.8,1.6v7h-1.8
				v-6.9c0-1.5-0.8-2.3-2.3-2.3c-1.2,0-2,0.5-2.4,1.5v7.7h-1.8v-10.6H96.6z"/>
			<path d="M116.8,139.2c-1.4,0-2.6-0.5-3.5-1.4s-1.3-2.2-1.3-3.8v-0.3c0-1,0.2-2,0.6-2.8s1-1.5,1.7-1.9s1.5-0.7,2.3-0.7
				c1.4,0,2.4,0.5,3.2,1.4s1.1,2.2,1.1,3.9v0.8h-7.2c0,1,0.3,1.9,0.9,2.5s1.3,1,2.2,1c0.6,0,1.2-0.1,1.6-0.4s0.8-0.6,1.2-1l1.1,0.9
				C119.9,138.5,118.6,139.2,116.8,139.2z M116.6,129.7c-0.7,0-1.3,0.3-1.8,0.8s-0.8,1.3-0.9,2.2h5.3v-0.1c-0.1-0.9-0.3-1.6-0.7-2.1
				S117.4,129.7,116.6,129.7z"/>
			<path d="M132.2,137.7c0.6,0,1.2-0.2,1.7-0.6s0.7-0.9,0.8-1.5h1.7c0,0.6-0.2,1.2-0.6,1.7s-0.9,1-1.5,1.3s-1.3,0.5-2,0.5
				c-1.4,0-2.6-0.5-3.4-1.4s-1.3-2.3-1.3-3.9v-0.3c0-1,0.2-1.9,0.6-2.7s0.9-1.4,1.6-1.9s1.5-0.7,2.5-0.7c1.2,0,2.2,0.4,3,1.1
				s1.2,1.6,1.3,2.8h-1.7c-0.1-0.7-0.3-1.2-0.8-1.7s-1-0.7-1.7-0.7c-0.9,0-1.6,0.3-2.1,1s-0.8,1.6-0.8,2.9v0.3
				c0,1.2,0.3,2.2,0.8,2.8S131.3,137.7,132.2,137.7z"/>
			<path d="M138,133.6c0-1,0.2-2,0.6-2.8s1-1.5,1.7-1.9s1.6-0.7,2.5-0.7c1.4,0,2.6,0.5,3.5,1.5s1.3,2.3,1.3,4v0.1c0,1-0.2,2-0.6,2.8
				s-1,1.5-1.7,1.9s-1.6,0.7-2.5,0.7c-1.4,0-2.6-0.5-3.5-1.5s-1.3-2.3-1.3-4V133.6z M139.8,133.8c0,1.2,0.3,2.1,0.8,2.8
				s1.3,1.1,2.2,1.1c0.9,0,1.6-0.4,2.2-1.1s0.8-1.7,0.8-3c0-1.2-0.3-2.1-0.8-2.8s-1.3-1.1-2.2-1.1c-0.9,0-1.6,0.4-2.2,1.1
				S139.8,132.5,139.8,133.8z"/>
			<path d="M151.8,139H150v-15h1.8V139z"/>
			<path d="M154.2,133.6c0-1,0.2-2,0.6-2.8s1-1.5,1.7-1.9s1.6-0.7,2.5-0.7c1.4,0,2.6,0.5,3.5,1.5s1.3,2.3,1.3,4v0.1
				c0,1-0.2,2-0.6,2.8s-1,1.5-1.7,1.9s-1.6,0.7-2.5,0.7c-1.4,0-2.6-0.5-3.5-1.5s-1.3-2.3-1.3-4V133.6z M156.1,133.8
				c0,1.2,0.3,2.1,0.8,2.8s1.3,1.1,2.2,1.1c0.9,0,1.6-0.4,2.2-1.1s0.8-1.7,0.8-3c0-1.2-0.3-2.1-0.8-2.8s-1.3-1.1-2.2-1.1
				c-0.9,0-1.6,0.4-2.2,1.1S156.1,132.5,156.1,133.8z"/>
			<path d="M171.2,130.1c-0.3,0-0.6-0.1-0.9-0.1c-1.2,0-2,0.5-2.4,1.5v7.5h-1.8v-10.6h1.8l0,1.2c0.6-0.9,1.4-1.4,2.5-1.4
				c0.4,0,0.6,0,0.8,0.1V130.1z"/>
			<path d="M179,136.2c0-0.5-0.2-0.9-0.6-1.1s-1-0.5-1.9-0.7s-1.6-0.4-2.2-0.7s-0.9-0.6-1.2-1s-0.4-0.8-0.4-1.3
				c0-0.9,0.4-1.6,1.1-2.2s1.7-0.9,2.8-0.9c1.2,0,2.2,0.3,2.9,0.9s1.1,1.4,1.1,2.4h-1.8c0-0.5-0.2-0.9-0.6-1.3s-0.9-0.5-1.6-0.5
				c-0.7,0-1.2,0.1-1.5,0.4s-0.6,0.7-0.6,1.1c0,0.4,0.2,0.8,0.5,1s1,0.4,1.9,0.6s1.6,0.4,2.2,0.7s1,0.6,1.2,1s0.4,0.9,0.4,1.4
				c0,0.9-0.4,1.7-1.1,2.3s-1.7,0.9-2.9,0.9c-0.8,0-1.6-0.1-2.2-0.4s-1.2-0.7-1.5-1.3s-0.6-1.1-0.6-1.7h1.8c0,0.6,0.3,1.1,0.7,1.4
				s1,0.5,1.8,0.5c0.7,0,1.2-0.1,1.6-0.4S179,136.7,179,136.2z"/>
		</g>
		<g enable-background="new    ">
			<path d="M72.1,347.1c-0.5,0.7-1.2,1.2-2,1.5s-1.9,0.5-3,0.5c-1.2,0-2.2-0.3-3.1-0.8s-1.6-1.3-2.1-2.3s-0.7-2.2-0.8-3.5v-1.2
				c0-2.1,0.5-3.8,1.5-5s2.4-1.8,4.2-1.8c1.5,0,2.7,0.4,3.6,1.1s1.5,1.8,1.7,3.2h-1.9c-0.4-1.9-1.5-2.8-3.4-2.8
				c-1.3,0-2.2,0.4-2.9,1.3s-1,2.2-1,3.8v1.2c0,1.6,0.4,2.9,1.1,3.8s1.7,1.4,3,1.4c0.7,0,1.3-0.1,1.8-0.2c0.5-0.2,1-0.4,1.3-0.8
				v-3.2H67v-1.5h5.2V347.1z"/>
			<path d="M80.1,340.1c-0.3,0-0.6-0.1-0.9-0.1c-1.2,0-2,0.5-2.4,1.5v7.5H75v-10.6h1.8l0,1.2c0.6-0.9,1.4-1.4,2.5-1.4
				c0.4,0,0.6,0,0.8,0.1V340.1z"/>
			<path d="M87.9,349c-0.1-0.2-0.2-0.6-0.3-1.1c-0.8,0.9-1.8,1.3-3,1.3c-1,0-1.9-0.3-2.6-0.9s-1-1.3-1-2.2c0-1.1,0.4-2,1.3-2.6
				s2-0.9,3.5-0.9h1.8v-0.8c0-0.6-0.2-1.1-0.6-1.5s-0.9-0.6-1.7-0.6c-0.6,0-1.2,0.2-1.6,0.5s-0.7,0.7-0.7,1.2h-1.8
				c0-0.5,0.2-1,0.6-1.5s0.9-0.9,1.5-1.2s1.3-0.4,2.1-0.4c1.2,0,2.2,0.3,2.9,0.9s1,1.4,1.1,2.5v4.9c0,1,0.1,1.7,0.4,2.3v0.2H87.9z
				 M84.9,347.6c0.6,0,1.1-0.1,1.6-0.4s0.9-0.7,1.1-1.1v-2.2h-1.4c-2.2,0-3.3,0.6-3.3,1.9c0,0.6,0.2,1,0.6,1.3
				S84.3,347.6,84.9,347.6z"/>
			<path d="M95.6,346.4l2.5-7.9h1.9l-4.2,12.2c-0.7,1.8-1.7,2.6-3.1,2.6l-0.3,0l-0.7-0.1v-1.5l0.5,0c0.6,0,1.1-0.1,1.4-0.4
				s0.6-0.7,0.8-1.4l0.4-1.1l-3.8-10.4h2L95.6,346.4z"/>
			<path d="M107.7,346.2c0-0.5-0.2-0.9-0.6-1.1s-1-0.5-1.9-0.7s-1.6-0.4-2.2-0.7s-0.9-0.6-1.2-1s-0.4-0.8-0.4-1.3
				c0-0.9,0.4-1.6,1.1-2.2s1.7-0.9,2.8-0.9c1.2,0,2.2,0.3,2.9,0.9s1.1,1.4,1.1,2.4h-1.8c0-0.5-0.2-0.9-0.6-1.3s-0.9-0.5-1.6-0.5
				c-0.7,0-1.2,0.1-1.5,0.4s-0.6,0.7-0.6,1.1c0,0.4,0.2,0.8,0.5,1s1,0.4,1.9,0.6s1.6,0.4,2.2,0.7s1,0.6,1.2,1s0.4,0.9,0.4,1.4
				c0,0.9-0.4,1.7-1.1,2.3s-1.7,0.9-2.9,0.9c-0.8,0-1.6-0.1-2.2-0.4s-1.2-0.7-1.5-1.3s-0.6-1.1-0.6-1.7h1.8c0,0.6,0.3,1.1,0.7,1.4
				s1,0.5,1.8,0.5c0.7,0,1.2-0.1,1.6-0.4S107.7,346.7,107.7,346.2z"/>
		</g>
		<g enable-background="new    ">
			<path d="M61.7,559v-14.2h4.6c1.5,0,2.7,0.3,3.5,1s1.2,1.6,1.2,2.8c0,0.7-0.2,1.3-0.6,1.8s-0.9,0.9-1.5,1.2
				c0.8,0.2,1.4,0.6,1.8,1.2s0.7,1.3,0.7,2.2c0,1.3-0.4,2.3-1.2,3s-2,1.1-3.5,1.1H61.7z M63.5,550.8h2.8c0.8,0,1.5-0.2,2-0.6
				s0.7-1,0.7-1.7c0-0.8-0.2-1.4-0.7-1.7s-1.1-0.5-2.1-0.5h-2.8V550.8z M63.5,552.3v5.1h3.1c0.9,0,1.6-0.2,2.1-0.7s0.8-1.1,0.8-1.9
				c0-1.7-0.9-2.6-2.8-2.6H63.5z"/>
			<path d="M75.8,559H74v-15h1.8V559z"/>
			<path d="M85.2,558c-0.7,0.8-1.7,1.2-3.1,1.2c-1.1,0-2-0.3-2.6-1s-0.9-1.6-0.9-2.9v-6.9h1.8v6.8c0,1.6,0.7,2.4,2,2.4
				c1.4,0,2.3-0.5,2.8-1.5v-7.7H87V559h-1.7L85.2,558z"/>
			<path d="M94.1,559.2c-1.4,0-2.6-0.5-3.5-1.4s-1.3-2.2-1.3-3.8v-0.3c0-1,0.2-2,0.6-2.8s1-1.5,1.7-1.9s1.5-0.7,2.3-0.7
				c1.4,0,2.4,0.5,3.2,1.4s1.1,2.2,1.1,3.9v0.8H91c0,1,0.3,1.9,0.9,2.5s1.3,1,2.2,1c0.6,0,1.2-0.1,1.6-0.4s0.8-0.6,1.2-1l1.1,0.9
				C97.2,558.5,95.9,559.2,94.1,559.2z M93.9,549.7c-0.7,0-1.3,0.3-1.8,0.8s-0.8,1.3-0.9,2.2h5.3v-0.1c-0.1-0.9-0.3-1.6-0.7-2.1
				S94.6,549.7,93.9,549.7z"/>
			<path d="M116,557.1c-0.5,0.7-1.2,1.2-2,1.5s-1.9,0.5-3,0.5c-1.2,0-2.2-0.3-3.1-0.8s-1.6-1.3-2.1-2.3s-0.7-2.2-0.8-3.5v-1.2
				c0-2.1,0.5-3.8,1.5-5s2.4-1.8,4.2-1.8c1.5,0,2.7,0.4,3.6,1.1s1.5,1.8,1.7,3.2h-1.9c-0.4-1.9-1.5-2.8-3.4-2.8
				c-1.3,0-2.2,0.4-2.9,1.3s-1,2.2-1,3.8v1.2c0,1.6,0.4,2.9,1.1,3.8s1.7,1.4,3,1.4c0.7,0,1.3-0.1,1.8-0.2c0.5-0.2,1-0.4,1.3-0.8
				v-3.2h-3.3v-1.5h5.2V557.1z"/>
			<path d="M124,550.1c-0.3,0-0.6-0.1-0.9-0.1c-1.2,0-2,0.5-2.4,1.5v7.5h-1.8v-10.6h1.8l0,1.2c0.6-0.9,1.4-1.4,2.5-1.4
				c0.4,0,0.6,0,0.8,0.1V550.1z"/>
			<path d="M131.8,559c-0.1-0.2-0.2-0.6-0.3-1.1c-0.8,0.9-1.8,1.3-3,1.3c-1,0-1.9-0.3-2.6-0.9s-1-1.3-1-2.2c0-1.1,0.4-2,1.3-2.6
				s2-0.9,3.5-0.9h1.8v-0.8c0-0.6-0.2-1.1-0.6-1.5s-0.9-0.6-1.7-0.6c-0.6,0-1.2,0.2-1.6,0.5s-0.7,0.7-0.7,1.2h-1.8
				c0-0.5,0.2-1,0.6-1.5s0.9-0.9,1.5-1.2s1.3-0.4,2.1-0.4c1.2,0,2.2,0.3,2.9,0.9s1,1.4,1.1,2.5v4.9c0,1,0.1,1.7,0.4,2.3v0.2H131.8z
				 M128.8,557.6c0.6,0,1.1-0.1,1.6-0.4s0.9-0.7,1.1-1.1v-2.2h-1.4c-2.2,0-3.3,0.6-3.3,1.9c0,0.6,0.2,1,0.6,1.3
				S128.2,557.6,128.8,557.6z"/>
			<path d="M139.4,556.4l2.5-7.9h1.9l-4.2,12.2c-0.7,1.8-1.7,2.6-3.1,2.6l-0.3,0l-0.7-0.1v-1.5l0.5,0c0.6,0,1.1-0.1,1.4-0.4
				s0.6-0.7,0.8-1.4l0.4-1.1l-3.8-10.4h2L139.4,556.4z"/>
			<path d="M151.6,556.2c0-0.5-0.2-0.9-0.6-1.1s-1-0.5-1.9-0.7s-1.6-0.4-2.2-0.7s-0.9-0.6-1.2-1s-0.4-0.8-0.4-1.3
				c0-0.9,0.4-1.6,1.1-2.2s1.7-0.9,2.8-0.9c1.2,0,2.2,0.3,2.9,0.9s1.1,1.4,1.1,2.4h-1.8c0-0.5-0.2-0.9-0.6-1.3s-0.9-0.5-1.6-0.5
				c-0.7,0-1.2,0.1-1.5,0.4s-0.6,0.7-0.6,1.1c0,0.4,0.2,0.8,0.5,1s1,0.4,1.9,0.6s1.6,0.4,2.2,0.7s1,0.6,1.2,1s0.4,0.9,0.4,1.4
				c0,0.9-0.4,1.7-1.1,2.3s-1.7,0.9-2.9,0.9c-0.8,0-1.6-0.1-2.2-0.4s-1.2-0.7-1.5-1.3s-0.6-1.1-0.6-1.7h1.8c0,0.6,0.3,1.1,0.7,1.4
				s1,0.5,1.8,0.5c0.7,0,1.2-0.1,1.6-0.4S151.6,556.7,151.6,556.2z"/>
		</g>
	</g>
</g>
</svg>
