<svg xmlns="http://www.w3.org/2000/svg" xmlns:xlink="http://www.w3.org/1999/xlink" viewBox="0 0 800 941"><defs><style>.a{clip-path:url(#b);}.b{fill:#141d26;}.c,.u{fill:#8696a5;}.d{fill:#0084b4;}.e{fill:#1b2936;}.f{fill:#fff;}.g{fill:#1a587f;}.h{fill:#e7ecf0;}.i{fill:#e7e7e7;}.j{fill:#efefef;}.k{fill:#f6f6f6;}.l{font-size:30px;}.l,.m,.t,.u,.v,.w{font-family:Roboto-Regular, Roboto;}.m,.s{font-size:14px;}.n{fill:#ffdb25;}.o,.v{fill:#df4534;}.p{fill:#3fa13f;}.q,.y{fill:none;}.q{stroke:#e7e7e7;}.r{fill:#f9f9f9;}.s{font-family:SegoeUI, Segoe UI;}.t,.u,.v{font-size:12px;}.w{font-size:20px;}.x{stroke:none;}</style><clipPath id="b"><rect width="800" height="941"/></clipPath></defs><g id="a" class="a"><rect class="f" width="800" height="941"/><rect class="b" width="60" height="60" transform="translate(60 413)"/><rect class="c" width="60" height="60" transform="translate(130 623)"/><rect class="d" width="60" height="60" transform="translate(60 203)"/><rect class="e" width="60" height="60" transform="translate(60 623)"/><rect class="f" width="60" height="60" transform="translate(130 413)"/><rect class="g" width="60" height="60" transform="translate(60 763)"/><rect class="h" width="60" height="60" transform="translate(200 623)"/><rect class="i" width="60" height="60" transform="translate(130 413)"/><rect class="j" width="60" height="60" transform="translate(200 413)"/><rect class="k" width="60" height="60" transform="translate(270 413)"/><text class="l" transform="translate(60 89)"><tspan x="0" y="0">Palette</tspan></text><text class="m" transform="translate(60 499)"><tspan x="0" y="0">#141D26</tspan></text><text class="m" transform="translate(60 709)"><tspan x="0" y="0">#1B2936</tspan></text><text class="m" transform="translate(130 709)"><tspan x="0" y="0">#8696A5</tspan></text><text class="m" transform="translate(200 709)"><tspan x="0" y="0">#E7ECF0</tspan></text><text class="m" transform="translate(60 849)"><tspan x="0" y="0">#1A587F</tspan></text><text class="m" transform="translate(60 289)"><tspan x="0" y="0">#0084B4</tspan></text><text class="m" transform="translate(130 499)"><tspan x="0" y="0">#E7E7E7</tspan></text><text class="m" transform="translate(200 499)"><tspan x="0" y="0">#EFEFEF</tspan></text><text class="m" transform="translate(270 499)"><tspan x="0" y="0">#F6F6F6</tspan></text><rect class="n" width="60" height="60" transform="translate(130 203)"/><text class="m" transform="translate(130 289)"><tspan x="0" y="0">#FFDB25</tspan></text><rect class="o" width="60" height="60" transform="translate(200 203)"/><rect class="p" width="60" height="60" transform="translate(270 203)"/><text class="m" transform="translate(200 289)"><tspan x="0" y="0">#DF4534</tspan></text><text class="m" transform="translate(270 289)"><tspan x="0" y="0">#3FA13F</tspan></text><g class="q" transform="translate(410 413)"><rect class="x" width="60" height="60"/><rect class="y" x="0.5" y="0.5" width="59" height="59"/></g><text class="m" transform="translate(410 499)"><tspan x="0" y="0">#FFFFFF</tspan></text><path class="r" d="M0,0H60V60H0Z" transform="translate(340 413)"/><text class="s" transform="translate(340 499)"><tspan x="0" y="0">#F9F9F9</tspan></text><text class="t" transform="translate(228 385)"><tspan x="-15.176" y="0">Down</tspan><tspan x="-31.884" y="14">Background</tspan></text><text class="t" transform="translate(370 399)"><tspan x="-15.732" y="0">Hover</tspan></text><text class="t" transform="translate(300 385)"><tspan x="-12.888" y="0">Text </tspan><tspan x="-31.884" y="14">Background</tspan></text><text class="t" transform="translate(160 595)"><tspan x="-24.618" y="0">Disabled </tspan><tspan x="-11.402" y="14">Text</tspan></text><text class="t" transform="translate(90 399)"><tspan x="-11.402" y="0">Text</tspan></text><text class="t" transform="translate(160 385)"><tspan x="-22.939" y="0">Border &amp;</tspan><tspan x="-14.268" y="14">Lines</tspan></text><text class="t" transform="translate(90 175)"><tspan x="-19.345" y="0">Links &amp;</tspan><tspan x="-20.716" y="14">Primary</tspan></text><text class="t" transform="translate(160 189)"><tspan x="-21.964" y="0">Warning</tspan></text><text class="t" transform="translate(230 189)"><tspan x="-19.084" y="0">Danger</tspan></text><text class="t" transform="translate(300 189)"><tspan x="-22.515" y="0">Success</tspan></text><text class="t" transform="translate(440 385)"><tspan x="-17.637" y="0">Button</tspan><tspan x="-31.884" y="14">Background</tspan></text><text class="u" transform="translate(90 749)"><tspan x="-24.108" y="0">Not used</tspan></text><text class="v" transform="translate(230 447)"><tspan x="-15.732" y="0">Effect</tspan></text><text class="v" transform="translate(370 447)"><tspan x="-15.732" y="0">Effect</tspan></text><text class="w" transform="translate(60 139)"><tspan x="0" y="0">Theme colors</tspan></text><text class="w" transform="translate(60 349)"><tspan x="0" y="0">Grays</tspan></text><text class="w" transform="translate(60 559)"><tspan x="0" y="0">Blue Grays</tspan></text></g></svg>